<svg
   xmlns:dc="http://purl.org/dc/elements/1.1/"
   xmlns:cc="http://creativecommons.org/ns#"
   xmlns:rdf="http://www.w3.org/1999/02/22-rdf-syntax-ns#"
   xmlns:svg="http://www.w3.org/2000/svg"
   xmlns="http://www.w3.org/2000/svg"
   xmlns:sodipodi="http://sodipodi.sourceforge.net/DTD/sodipodi-0.dtd"
   xmlns:inkscape="http://www.inkscape.org/namespaces/inkscape"
   version="1.1"
   id="svg2"
   xml:space="preserve"
   width="2560"
   height="1440"
   viewBox="0 0 2560 1440"
   sodipodi:docname="christmas-2902497.ai"><metadata
     id="metadata8"><rdf:RDF><cc:Work
         rdf:about=""><dc:format>image/svg+xml</dc:format><dc:type
           rdf:resource="http://purl.org/dc/dcmitype/StillImage" /></cc:Work></rdf:RDF></metadata><defs
     id="defs6"><clipPath
       clipPathUnits="userSpaceOnUse"
       id="clipPath24"><path
         d="M 0,0 H 1920 V 1078 H 0 Z"
         id="path22" /></clipPath><clipPath
       clipPathUnits="userSpaceOnUse"
       id="clipPath40"><path
         d="M 0,0 H 1920 V 1078 H 0 Z"
         id="path38" /></clipPath><clipPath
       clipPathUnits="userSpaceOnUse"
       id="clipPath56"><path
         d="M 0,0 H 1920 V 1078 H 0 Z"
         id="path54" /></clipPath><clipPath
       clipPathUnits="userSpaceOnUse"
       id="clipPath72"><path
         d="M 0,0 H 1920 V 1078 H 0 Z"
         id="path70" /></clipPath><clipPath
       clipPathUnits="userSpaceOnUse"
       id="clipPath96"><path
         d="M 0,0 H 1920 V 1078 H 0 Z"
         id="path94" /></clipPath><clipPath
       clipPathUnits="userSpaceOnUse"
       id="clipPath120"><path
         d="M 0,0 H 1920 V 1078 H 0 Z"
         id="path118" /></clipPath><clipPath
       clipPathUnits="userSpaceOnUse"
       id="clipPath244"><path
         d="m 115,1025 h 39 v -39 h -39 z"
         id="path242" /></clipPath><clipPath
       clipPathUnits="userSpaceOnUse"
       id="clipPath392"><path
         d="m 499,693 h 31 v -31 h -31 z"
         id="path390" /></clipPath><clipPath
       clipPathUnits="userSpaceOnUse"
       id="clipPath408"><path
         d="m 530,629 h 19 v -19 h -19 z"
         id="path406" /></clipPath><clipPath
       clipPathUnits="userSpaceOnUse"
       id="clipPath424"><path
         d="m 595,582 h 25 v -25 h -25 z"
         id="path422" /></clipPath><clipPath
       clipPathUnits="userSpaceOnUse"
       id="clipPath440"><path
         d="m 622,686 h 30 v -30 h -30 z"
         id="path438" /></clipPath><clipPath
       clipPathUnits="userSpaceOnUse"
       id="clipPath456"><path
         d="m 262,656 h 27 v -27 h -27 z"
         id="path454" /></clipPath><clipPath
       clipPathUnits="userSpaceOnUse"
       id="clipPath472"><path
         d="m 391,641 h 26 v -26 h -26 z"
         id="path470" /></clipPath><clipPath
       clipPathUnits="userSpaceOnUse"
       id="clipPath488"><path
         d="m 499,534 h 22 v -22 h -22 z"
         id="path486" /></clipPath><clipPath
       clipPathUnits="userSpaceOnUse"
       id="clipPath504"><path
         d="m 203,557 h 29 v -29 h -29 z"
         id="path502" /></clipPath><clipPath
       clipPathUnits="userSpaceOnUse"
       id="clipPath520"><path
         d="m 289,594 h 29 v -29 h -29 z"
         id="path518" /></clipPath><clipPath
       clipPathUnits="userSpaceOnUse"
       id="clipPath536"><path
         d="m 644,631 h 21 v -21 h -21 z"
         id="path534" /></clipPath><clipPath
       clipPathUnits="userSpaceOnUse"
       id="clipPath552"><path
         d="m 681,553 h 19 v -19 h -19 z"
         id="path550" /></clipPath><clipPath
       clipPathUnits="userSpaceOnUse"
       id="clipPath568"><path
         d="m 457,574 h 17 v -17 h -17 z"
         id="path566" /></clipPath><clipPath
       clipPathUnits="userSpaceOnUse"
       id="clipPath584"><path
         d="m 391,701 h 21 v -21 h -21 z"
         id="path582" /></clipPath><clipPath
       clipPathUnits="userSpaceOnUse"
       id="clipPath608"><path
         d="m 1137,1041 h 144 V 897 h -144 z"
         id="path606" /></clipPath><clipPath
       clipPathUnits="userSpaceOnUse"
       id="clipPath652"><path
         d="m 1677,927 h 36 v -36 h -36 z"
         id="path650" /></clipPath><clipPath
       clipPathUnits="userSpaceOnUse"
       id="clipPath668"><path
         d="m 885,963 h 58 v -58 h -58 z"
         id="path666" /></clipPath><clipPath
       clipPathUnits="userSpaceOnUse"
       id="clipPath684"><path
         d="m 1003,844 h 57 v -57 h -57 z"
         id="path682" /></clipPath><clipPath
       clipPathUnits="userSpaceOnUse"
       id="clipPath700"><path
         d="m 1298,1066 h 58 v -58 h -58 z"
         id="path698" /></clipPath><clipPath
       clipPathUnits="userSpaceOnUse"
       id="clipPath716"><path
         d="m 1503,1003 h 67 v -67 h -67 z"
         id="path714" /></clipPath><clipPath
       clipPathUnits="userSpaceOnUse"
       id="clipPath732"><path
         d="m 1695,1041 h 53 v -53 h -53 z"
         id="path730" /></clipPath></defs><sodipodi:namedview
     pagecolor="#ffffff"
     bordercolor="#666666"
     borderopacity="1"
     objecttolerance="10"
     gridtolerance="10"
     guidetolerance="10"
     inkscape:pageopacity="0"
     inkscape:pageshadow="2"
     inkscape:window-width="640"
     inkscape:window-height="480"
     id="namedview4" /><g
     id="g10"
     inkscape:groupmode="layer"
     inkscape:label="christmas-2902497"
     transform="matrix(1.3333333,0,0,-1.3333333,0,1440)"><path
       d="M 0,0 H 1920 V 1078 H 0 Z"
       style="fill:#ece7d8;fill-opacity:1;fill-rule:nonzero;stroke:none"
       id="path12" /><g
       id="g14"
       transform="translate(0,279.7142)"><path
         d="M 0,0 V -108.674 L 1608.53,51.461 Z"
         style="fill:#f4efc9;fill-opacity:1;fill-rule:nonzero;stroke:none"
         id="path16" /></g><g
       id="g18"><g
         id="g20"
         clip-path="url(#clipPath24)"><g
           id="g26"
           transform="translate(1608.5303,331.1748)"><path
             d="m 0,0 -1636.201,-52.346 10.897,-109.459 z"
             style="fill:none;stroke:#f7f5e7;stroke-width:8;stroke-linecap:butt;stroke-linejoin:miter;stroke-miterlimit:10;stroke-dasharray:none;stroke-opacity:1"
             id="path28" /></g></g></g><g
       id="g30"
       transform="translate(488.9997)"><path
         d="m 0,0 h 269 l 861.875,314.676 z"
         style="fill:#f4efc9;fill-opacity:1;fill-rule:nonzero;stroke:none"
         id="path32" /></g><g
       id="g34"><g
         id="g36"
         clip-path="url(#clipPath40)"><g
           id="g42"
           transform="translate(1619.875,314.6758)"><path
             d="m 0,0 -1130.875,-314.676 h 269 z"
             style="fill:none;stroke:#f7f5e7;stroke-width:8;stroke-linecap:butt;stroke-linejoin:miter;stroke-miterlimit:10;stroke-dasharray:none;stroke-opacity:1"
             id="path44" /></g></g></g><g
       id="g46"
       transform="translate(869.0004,9)"><path
         d="M 0,0 -25.312,-9 H 140.571 L 751,306 Z"
         style="fill:#f4efc9;fill-opacity:1;fill-rule:nonzero;stroke:none"
         id="path48" /></g><g
       id="g50"><g
         id="g52"
         clip-path="url(#clipPath56)"><g
           id="g58"
           transform="translate(1620,315)"><path
             d="m 0,0 -751,-306 -90,-32 h 186 z"
             style="fill:none;stroke:#f7f5e7;stroke-width:8;stroke-linecap:butt;stroke-linejoin:miter;stroke-miterlimit:10;stroke-dasharray:none;stroke-opacity:1"
             id="path60" /></g></g></g><g
       id="g62"
       transform="translate(1099.115)"><path
         d="m 0,0 h 232.489 l 279.396,291 v 10 z"
         style="fill:#f4efc9;fill-opacity:1;fill-rule:nonzero;stroke:none"
         id="path64" /></g><g
       id="g66"><g
         id="g68"
         clip-path="url(#clipPath72)"><g
           id="g74"
           transform="translate(1611,301)"><path
             d="M 0,0 -551,-324 -313,-336 0,-10"
             style="fill:none;stroke:#f7f5e7;stroke-width:8;stroke-linecap:butt;stroke-linejoin:miter;stroke-miterlimit:10;stroke-dasharray:none;stroke-opacity:1"
             id="path76" /></g></g></g><g
       id="g78"
       transform="translate(1669.6689,545.5483)"><path
         d="m 0,0 30.699,-99.47 100.689,23.201 -57.931,-86.356 80.637,-64.979 -102.937,-8.215 -0.136,-104.227 -70.429,76.113 -80.807,-64.992 15.113,103.127 -100.628,23.183 89.275,52.484 -44.675,93.902 96.211,-37.681 z"
         style="fill:#f4efc9;fill-opacity:1;fill-rule:nonzero;stroke:none"
         id="path80" /></g><g
       id="g82"
       transform="translate(1669.6689,545.5483)"><path
         d="m 0,0 30.699,-99.47 100.689,23.201 -57.931,-86.356 80.637,-64.979 -102.937,-8.215 -0.136,-104.227 -70.429,76.113 -80.807,-64.992 15.113,103.127 -100.628,23.183 89.275,52.484 -44.675,93.902 96.211,-37.681 z"
         style="fill:none;stroke:#f7f5e7;stroke-width:8;stroke-linecap:butt;stroke-linejoin:miter;stroke-miterlimit:10;stroke-dasharray:none;stroke-opacity:1"
         id="path84" /></g><g
       id="g86"
       transform="translate(0,91.421)"><path
         d="M 0,0 V -91.421 H 380.941 L 1607.718,233.436 Z"
         style="fill:#f4efc9;fill-opacity:1;fill-rule:nonzero;stroke:none"
         id="path88" /></g><g
       id="g90"><g
         id="g92"
         clip-path="url(#clipPath96)"><g
           id="g98"
           transform="translate(1607.7178,324.8564)"><path
             d="m 0,0 -1704.94,-247.552 25.116,-146.115 307.735,30.331 z"
             style="fill:none;stroke:#f7f5e7;stroke-width:8;stroke-linecap:butt;stroke-linejoin:miter;stroke-miterlimit:10;stroke-dasharray:none;stroke-opacity:1"
             id="path100" /></g></g></g><g
       id="g102"
       transform="translate(181,477)"><path
         d="M 0,0 111.672,345.45 150,264 211,459 274,322 333,439 405,275 432,362 550.5,2 Z"
         style="fill:#abc1c5;fill-opacity:1;fill-rule:nonzero;stroke:none"
         id="path104" /></g><g
       id="g106"
       transform="translate(181.5,431.5)"><path
         d="m 0,0 124,-180 56,112 18,-41 17,41 105,-236 46,165 59,-79 124,218 z"
         style="fill:#01667f;fill-opacity:1;fill-rule:nonzero;stroke:none"
         id="path108" /></g><g
       id="g110"
       transform="translate(241,430)"><path
         d="m 0,0 64,-97 59,88.5 19,-20 12,20.5 91,-99 68,89.5 51,-60.5 53.923,79 z"
         style="fill:#023852;fill-opacity:1;fill-rule:nonzero;stroke:none"
         id="path112" /></g><g
       id="g114"><g
         id="g116"
         clip-path="url(#clipPath120)"><g
           id="g122"
           transform="translate(763,432)"><path
             d="m 0,0 h -610 c -8.8,0 -16,7.2 -16,16 0,8.8 7.2,16 16,16 H 0 C 8.8,32 16,24.8 16,16 16,7.2 8.8,0 0,0"
             style="fill:#81acbc;fill-opacity:1;fill-rule:nonzero;stroke:none"
             id="path124" /></g><g
           id="g126"
           transform="translate(397,433)"><path
             d="m 0,0 h 311 c 3.3,0 6,-2.7 6,-6 0,-3.3 -2.7,-6 -6,-6 H 0 c -3.3,0 -6,2.7 -6,6 0,3.3 2.7,6 6,6"
             style="fill:#81acbc;fill-opacity:1;fill-rule:nonzero;stroke:none"
             id="path128" /></g><g
           id="g130"
           transform="translate(462,707)"><path
             d="m 0,0 0.5,-221 h 270 L 151,140 126,48 53,209 -5,95 Z"
             style="fill:#89bac9;fill-opacity:1;fill-rule:nonzero;stroke:none"
             id="path132" /></g><g
           id="g134"
           transform="translate(276.5425,772.7568)"><path
             d="m 0,0 16.504,59.475 39.872,-85.059 59.292,194.911 64.798,-135.097 59.172,114.912 71.755,-164.108 25.137,91.963 42.8,-134.064 -30.933,45.046 -18.097,-64.973 -18.947,35.028 -8.032,-20.988 -28.907,62.043 -18.072,-47.973 -24.947,35.038 -17.069,-45.975 -15.965,24.024 -12.037,-24.982 -24.936,43.037 -19.075,-49.971 -17.92,53.027 -18.069,-45.973 -10.962,25.016 -36.107,-70.946 -19.931,46.03 -21.058,-38.969 -22.953,31.035 -31.708,-43.52 z"
             style="fill:#f4f2ed;fill-opacity:1;fill-rule:nonzero;stroke:none"
             id="path136" /></g><g
           id="g138"
           transform="translate(262.4458,608.0063)"><path
             d="m 0,0 c -9.576,-18.721 -20.74,-39.116 -32.89,-62.005 21.148,7.899 44.43,8.049 65.66,0.449 C 20.636,-38.837 9.516,-18.592 0,0"
             style="fill:#04adbf;fill-opacity:1;fill-rule:nonzero;stroke:none"
             id="path140" /></g><g
           id="g142"
           transform="translate(262.8691,601.3452)"><path
             d="m 0,0 c -10.75,-26.046 -23.967,-54.165 -38.756,-85.748 24.805,10.171 52.642,10.212 77.471,0.123 C 23.933,-54.09 10.73,-26.013 0,0"
             style="fill:#04adbf;fill-opacity:1;fill-rule:nonzero;stroke:none"
             id="path144" /></g><g
           id="g146"
           transform="translate(263,569.3638)"><path
             d="m 0,0 c -15.145,-26.03 -33.528,-55.83 -53.103,-91.723 33.068,18.179 73.138,18.179 106.206,0 C 33.528,-55.83 15.145,-26.03 0,0"
             style="fill:#04adbf;fill-opacity:1;fill-rule:nonzero;stroke:none"
             id="path148" /></g><g
           id="g150"
           transform="translate(267.8574,462.3906)"><path
             d="m 0,0 c -4.451,0.185 -8.909,0.115 -13.354,-0.207 0.211,12.089 0.422,24.179 0.633,36.269 4.114,0.298 8.24,0.362 12.359,0.192 C -0.241,24.169 -0.121,12.085 0,0"
             style="fill:#04adbf;fill-opacity:1;fill-rule:nonzero;stroke:none"
             id="path152" /></g><g
           id="g154"
           transform="translate(202.9229,625.8164)"><path
             d="m 0,0 c -9.983,-19.204 -21.788,-40.153 -34.772,-63.79 22.353,8.35 46.96,8.508 69.399,0.476 C 21.666,-39.861 9.913,-19.069 0,0"
             style="fill:#01667f;fill-opacity:1;fill-rule:nonzero;stroke:none"
             id="path156" /></g><g
           id="g158"
           transform="translate(203.3633,618.9839)"><path
             d="m 0,0 c -11.225,-26.717 -25.28,-55.598 -41.201,-88.24 26.368,10.812 55.96,10.856 82.355,0.131 C 25.24,-55.519 11.203,-26.682 0,0"
             style="fill:#01667f;fill-opacity:1;fill-rule:nonzero;stroke:none"
             id="path160" /></g><g
           id="g162"
           transform="translate(203.5,586.1792)"><path
             d="m 0,0 c -15.943,-26.699 -35.601,-57.368 -56.762,-94.672 35.346,19.432 78.178,19.432 113.524,0 C 35.601,-57.368 15.943,-26.699 0,0"
             style="fill:#01667f;fill-opacity:1;fill-rule:nonzero;stroke:none"
             id="path164" /></g><g
           id="g166"
           transform="translate(208.7144,476.4492)"><path
             d="m 0,0 c -4.778,0.197 -9.564,0.123 -14.335,-0.224 0.241,12.403 0.483,24.804 0.725,37.205 4.392,0.32 8.798,0.388 13.195,0.206 z"
             style="fill:#01667f;fill-opacity:1;fill-rule:nonzero;stroke:none"
             id="path168" /></g><g
           id="g170"
           transform="translate(601.771,659.0171)"><path
             d="m 0,0 c -12.613,-22.969 -28.22,-48.147 -45.946,-77.078 29.515,11.025 62.007,11.234 91.634,0.628 C 28.015,-47.769 12.499,-22.799 0,0"
             style="fill:#04adbf;fill-opacity:1;fill-rule:nonzero;stroke:none"
             id="path172" /></g><g
           id="g174"
           transform="translate(602.3267,650.8467)"><path
             d="m 0,0 c -14.26,-31.951 -33.167,-66.653 -55.377,-106.727 35.434,14.529 75.2,14.588 110.67,0.176 C 33.099,-66.549 14.223,-31.906 0,0"
             style="fill:#04adbf;fill-opacity:1;fill-rule:nonzero;stroke:none"
             id="path176" /></g><g
           id="g178"
           transform="translate(602.5,611.6172)"><path
             d="m 0,0 c -20.788,-31.929 -47.675,-69.035 -77.545,-115.696 48.288,26.547 106.802,26.547 155.09,0 C 47.675,-69.035 20.788,-31.929 0,0"
             style="fill:#04adbf;fill-opacity:1;fill-rule:nonzero;stroke:none"
             id="path180" /></g><g
           id="g182"
           transform="translate(609.7144,480.374)"><path
             d="m 0,0 c -6.61,0.274 -13.233,0.172 -19.834,-0.308 0.397,14.834 0.794,29.669 1.191,44.504 5.978,0.434 11.976,0.527 17.962,0.279 C -0.454,29.65 -0.227,14.825 0,0"
             style="fill:#04adbf;fill-opacity:1;fill-rule:nonzero;stroke:none"
             id="path184" /></g><g
           id="g186"
           transform="translate(307.1216,571.5825)"><path
             d="m 0,0 c -6.555,-11.565 -14.864,-24.279 -24.454,-39.045 15.703,5.865 32.989,5.976 48.752,0.334 C 14.742,-24.08 6.487,-11.477 0,0"
             style="fill:#01667f;fill-opacity:1;fill-rule:nonzero;stroke:none"
             id="path188" /></g><g
           id="g190"
           transform="translate(307.4097,567.4692)"><path
             d="m 0,0 c -7.433,-16.086 -17.587,-33.606 -29.73,-54.096 19.022,7.799 40.369,7.831 59.409,0.094 C 17.547,-33.551 7.411,-16.063 0,0"
             style="fill:#01667f;fill-opacity:1;fill-rule:nonzero;stroke:none"
             id="path192" /></g><g
           id="g194"
           transform="translate(307.5,547.7192)"><path
             d="m 0,0 c -10.987,-16.075 -25.548,-34.886 -41.969,-58.999 26.135,14.368 57.803,14.368 83.938,0 C 25.548,-34.886 10.987,-16.075 0,0"
             style="fill:#01667f;fill-opacity:1;fill-rule:nonzero;stroke:none"
             id="path196" /></g><g
           id="g198"
           transform="translate(311.4287,481.6396)"><path
             d="m 0,0 c -3.6,0.149 -7.206,0.093 -10.801,-0.168 0.233,7.47 0.466,14.939 0.698,22.409 3.23,0.235 6.47,0.284 9.704,0.151 C -0.266,14.928 -0.133,7.464 0,0"
             style="fill:#01667f;fill-opacity:1;fill-rule:nonzero;stroke:none"
             id="path200" /></g><g
           id="g202"
           transform="translate(679.9229,629.8164)"><path
             d="m 0,0 c -9.983,-19.204 -21.788,-40.153 -34.772,-63.79 22.353,8.35 46.96,8.508 69.399,0.476 C 21.666,-39.861 9.913,-19.069 0,0"
             style="fill:#01667f;fill-opacity:1;fill-rule:nonzero;stroke:none"
             id="path204" /></g><g
           id="g206"
           transform="translate(680.3633,622.9839)"><path
             d="m 0,0 c -11.225,-26.717 -25.28,-55.598 -41.201,-88.24 26.368,10.812 55.96,10.856 82.355,0.131 C 25.24,-55.519 11.203,-26.682 0,0"
             style="fill:#01667f;fill-opacity:1;fill-rule:nonzero;stroke:none"
             id="path208" /></g><g
           id="g210"
           transform="translate(680.5,590.1792)"><path
             d="m 0,0 c -15.943,-26.699 -35.602,-57.368 -56.762,-94.672 35.346,19.432 78.178,19.432 113.524,0 C 35.602,-57.368 15.943,-26.699 0,0"
             style="fill:#01667f;fill-opacity:1;fill-rule:nonzero;stroke:none"
             id="path212" /></g><g
           id="g214"
           transform="translate(685.7144,480.4492)"><path
             d="m 0,0 c -4.778,0.197 -9.564,0.123 -14.335,-0.224 0.241,12.403 0.483,24.804 0.725,37.205 4.392,0.32 8.798,0.388 13.195,0.206 z"
             style="fill:#01667f;fill-opacity:1;fill-rule:nonzero;stroke:none"
             id="path216" /></g><g
           id="g218"
           transform="translate(741.5,453)"><path
             d="m 0,0 h -558 c -9.075,0 -16.5,7.425 -16.5,16.5 0,9.075 7.425,16.5 16.5,16.5 H 0 C 9.075,33 16.5,25.575 16.5,16.5 16.5,7.425 9.075,0 0,0"
             style="fill:#81acbc;fill-opacity:1;fill-rule:nonzero;stroke:none"
             id="path220" /></g><g
           id="g222"
           transform="translate(417.771,671.6875)"><path
             d="M 0,0 C -19.939,-29.508 -59.322,-49.737 -118.421,-61.118 -33.391,-70.542 44.276,-77.95 114.765,-83.007 58.299,-45.972 19.943,-18.456 0,0"
             style="fill:#01667f;fill-opacity:1;fill-rule:nonzero;stroke:none"
             id="path224" /></g><g
           id="g226"
           transform="translate(470.8804,486)"><path
             d="m 0,0 h -95.761 l -28.498,104 H 28.499 Z"
             style="fill:#01667f;fill-opacity:1;fill-rule:nonzero;stroke:none"
             id="path228" /></g><path
           d="m 371,624 h -11 v 47 h 11 z"
           style="fill:#01667f;fill-opacity:1;fill-rule:nonzero;stroke:none"
           id="path230" /><path
           d="m 433,504 h -42 v 64 h 42 z"
           style="fill:#abc1c5;fill-opacity:1;fill-rule:nonzero;stroke:none"
           id="path232" /><path
           d="m 433,540 h -42 v 7 h 42 z"
           style="fill:#01667f;fill-opacity:1;fill-rule:nonzero;stroke:none"
           id="path234" /><path
           d="m 415,502 h -7 v 71 h 7 z"
           style="fill:#01667f;fill-opacity:1;fill-rule:nonzero;stroke:none"
           id="path236" /><g
           id="g238"><g
             id="g240" /><g
             id="g252"><g
               clip-path="url(#clipPath244)"
               opacity="0.490005"
               id="g250"><g
                 transform="translate(154,1005.5)"
                 id="g248"><path
                   d="m 0,0 c 0,-10.77 -8.73,-19.5 -19.5,-19.5 -10.77,0 -19.5,8.73 -19.5,19.5 0,10.77 8.73,19.5 19.5,19.5 C -8.73,19.5 0,10.77 0,0"
                   style="fill:#f4f2ed;fill-opacity:1;fill-rule:nonzero;stroke:none"
                   id="path246" /></g></g></g></g><g
           id="g254"
           transform="translate(94,891.5)"><path
             d="m 0,0 c 0,-10.77 -8.73,-19.5 -19.5,-19.5 -10.77,0 -19.5,8.73 -19.5,19.5 0,10.77 8.73,19.5 19.5,19.5 C -8.73,19.5 0,10.77 0,0"
             style="fill:#f4f2ed;fill-opacity:1;fill-rule:nonzero;stroke:none"
             id="path256" /></g><g
           id="g258"
           transform="translate(347,1006.5)"><path
             d="m 0,0 c 0,-10.217 -8.283,-18.5 -18.5,-18.5 -10.217,0 -18.5,8.283 -18.5,18.5 0,10.217 8.283,18.5 18.5,18.5 C -8.283,18.5 0,10.217 0,0"
             style="fill:#f4f2ed;fill-opacity:1;fill-rule:nonzero;stroke:none"
             id="path260" /></g><g
           id="g262"
           transform="translate(251,905)"><path
             d="m 0,0 c 0,-12.15 -9.85,-22 -22,-22 -12.15,0 -22,9.85 -22,22 0,12.15 9.85,22 22,22 C -9.85,22 0,12.15 0,0"
             style="fill:#f4f2ed;fill-opacity:1;fill-rule:nonzero;stroke:none"
             id="path264" /></g><g
           id="g266"
           transform="translate(229,1031.5)"><path
             d="m 0,0 c 0,-8.561 -6.939,-15.5 -15.5,-15.5 -8.561,0 -15.5,6.939 -15.5,15.5 0,8.561 6.939,15.5 15.5,15.5 C -6.939,15.5 0,8.561 0,0"
             style="fill:#f4f2ed;fill-opacity:1;fill-rule:nonzero;stroke:none"
             id="path268" /></g><g
           id="g270"
           transform="translate(74,1037)"><path
             d="m 0,0 c 0,-5.523 -4.253,-10 -9.5,-10 -5.247,0 -9.5,4.477 -9.5,10 0,5.523 4.253,10 9.5,10 C -4.253,10 0,5.523 0,0"
             style="fill:#f4f2ed;fill-opacity:1;fill-rule:nonzero;stroke:none"
             id="path272" /></g><g
           id="g274"
           transform="translate(141,929)"><path
             d="m 0,0 c 0,-7.18 -5.82,-13 -13,-13 -7.18,0 -13,5.82 -13,13 0,7.18 5.82,13 13,13 C -5.82,13 0,7.18 0,0"
             style="fill:#f4f2ed;fill-opacity:1;fill-rule:nonzero;stroke:none"
             id="path276" /></g><g
           id="g278"
           transform="translate(107,789.5)"><path
             d="m 0,0 c 0,-6.903 -5.373,-12.5 -12,-12.5 -6.627,0 -12,5.597 -12,12.5 0,6.903 5.373,12.5 12,12.5 C -5.373,12.5 0,6.903 0,0"
             style="fill:#f4f2ed;fill-opacity:1;fill-rule:nonzero;stroke:none"
             id="path280" /></g><g
           id="g282"
           transform="translate(83,695.5)"><path
             d="m 0,0 c 0,-5.247 -4.253,-9.5 -9.5,-9.5 -5.247,0 -9.5,4.253 -9.5,9.5 0,5.247 4.253,9.5 9.5,9.5 C -4.253,9.5 0,5.247 0,0"
             style="fill:#f4f2ed;fill-opacity:1;fill-rule:nonzero;stroke:none"
             id="path284" /></g><g
           id="g286"
           transform="translate(202,787.5)"><path
             d="m 0,0 c 0,-7.456 -6.044,-13.5 -13.5,-13.5 -7.456,0 -13.5,6.044 -13.5,13.5 0,7.456 6.044,13.5 13.5,13.5 C -6.044,13.5 0,7.456 0,0"
             style="fill:#f4f2ed;fill-opacity:1;fill-rule:nonzero;stroke:none"
             id="path288" /></g><g
           id="g290"
           transform="translate(61,815)"><path
             d="m 0,0 c 0,-7.732 -6.268,-14 -14,-14 -7.732,0 -14,6.268 -14,14 0,7.732 6.268,14 14,14 C -6.268,14 0,7.732 0,0"
             style="fill:#f4f2ed;fill-opacity:1;fill-rule:nonzero;stroke:none"
             id="path292" /></g><g
           id="g294"
           transform="translate(162,846)"><path
             d="m 0,0 c 0,-9.389 -7.611,-17 -17,-17 -9.389,0 -17,7.611 -17,17 0,9.389 7.611,17 17,17 C -7.611,17 0,9.389 0,0"
             style="fill:#f4f2ed;fill-opacity:1;fill-rule:nonzero;stroke:none"
             id="path296" /></g><g
           id="g298"
           transform="translate(167,726.5)"><path
             d="m 0,0 c 0,-9.113 -7.387,-16.5 -16.5,-16.5 -9.113,0 -16.5,7.387 -16.5,16.5 0,9.113 7.387,16.5 16.5,16.5 C -7.387,16.5 0,9.113 0,0"
             style="fill:#f4f2ed;fill-opacity:1;fill-rule:nonzero;stroke:none"
             id="path300" /></g><g
           id="g302"
           transform="translate(50,734.5)"><path
             d="m 0,0 c 0,-4.694 -3.806,-8.5 -8.5,-8.5 -4.694,0 -8.5,3.806 -8.5,8.5 0,4.694 3.806,8.5 8.5,8.5 C -3.806,8.5 0,4.694 0,0"
             style="fill:#f4f2ed;fill-opacity:1;fill-rule:nonzero;stroke:none"
             id="path304" /></g><g
           id="g306"
           transform="translate(142,623.5)"><path
             d="m 0,0 c 0,-7.456 -6.044,-13.5 -13.5,-13.5 -7.456,0 -13.5,6.044 -13.5,13.5 0,7.456 6.044,13.5 13.5,13.5 C -6.044,13.5 0,7.456 0,0"
             style="fill:#f4f2ed;fill-opacity:1;fill-rule:nonzero;stroke:none"
             id="path308" /></g><g
           id="g310"
           transform="translate(89,602.5)"><path
             d="m 0,0 c 0,-6.903 -5.597,-12.5 -12.5,-12.5 -6.903,0 -12.5,5.597 -12.5,12.5 0,6.903 5.597,12.5 12.5,12.5 C -5.597,12.5 0,6.903 0,0"
             style="fill:#f4f2ed;fill-opacity:1;fill-rule:nonzero;stroke:none"
             id="path312" /></g><g
           id="g314"
           transform="translate(55,656)"><path
             d="m 0,0 c 0,-8.284 -6.716,-15 -15,-15 -8.284,0 -15,6.716 -15,15 0,8.284 6.716,15 15,15 C -6.716,15 0,8.284 0,0"
             style="fill:#f4f2ed;fill-opacity:1;fill-rule:nonzero;stroke:none"
             id="path316" /></g><g
           id="g318"
           transform="translate(74,510.5)"><path
             d="m 0,0 c 0,-9.665 -7.611,-17.5 -17,-17.5 -9.389,0 -17,7.835 -17,17.5 0,9.665 7.611,17.5 17,17.5 C -7.611,17.5 0,9.665 0,0"
             style="fill:#f4f2ed;fill-opacity:1;fill-rule:nonzero;stroke:none"
             id="path320" /></g><g
           id="g322"
           transform="translate(141,540)"><path
             d="m 0,0 c 0,-9.389 -7.611,-17 -17,-17 -9.389,0 -17,7.611 -17,17 0,9.389 7.611,17 17,17 C -7.611,17 0,9.389 0,0"
             style="fill:#f4f2ed;fill-opacity:1;fill-rule:nonzero;stroke:none"
             id="path324" /></g><g
           id="g326"
           transform="translate(448,1027)"><path
             d="m 0,0 c 0,-11.046 -8.954,-20 -20,-20 -11.046,0 -20,8.954 -20,20 0,11.046 8.954,20 20,20 C -8.954,20 0,11.046 0,0"
             style="fill:#f4f2ed;fill-opacity:1;fill-rule:nonzero;stroke:none"
             id="path328" /></g><g
           id="g330"
           transform="translate(589,1006.5)"><path
             d="m 0,0 c 0,-10.217 -8.283,-18.5 -18.5,-18.5 -10.217,0 -18.5,8.283 -18.5,18.5 0,10.217 8.283,18.5 18.5,18.5 C -8.283,18.5 0,10.217 0,0"
             style="fill:#f4f2ed;fill-opacity:1;fill-rule:nonzero;stroke:none"
             id="path332" /></g><g
           id="g334"
           transform="translate(637,901)"><path
             d="m 0,0 c 0,-8.284 -6.716,-15 -15,-15 -8.284,0 -15,6.716 -15,15 0,8.284 6.716,15 15,15 C -6.716,15 0,8.284 0,0"
             style="fill:#f4f2ed;fill-opacity:1;fill-rule:nonzero;stroke:none"
             id="path336" /></g><g
           id="g338"
           transform="translate(480,932)"><path
             d="m 0,0 c 0,-8.836 -7.164,-16 -16,-16 -8.836,0 -16,7.164 -16,16 0,8.836 7.164,16 16,16 C -7.164,16 0,8.836 0,0"
             style="fill:#f4f2ed;fill-opacity:1;fill-rule:nonzero;stroke:none"
             id="path340" /></g><g
           id="g342"
           transform="translate(527,1041)"><path
             d="m 0,0 c 0,-7.732 -6.268,-14 -14,-14 -7.732,0 -14,6.268 -14,14 0,7.732 6.268,14 14,14 C -6.268,14 0,7.732 0,0"
             style="fill:#f4f2ed;fill-opacity:1;fill-rule:nonzero;stroke:none"
             id="path344" /></g><g
           id="g346"
           transform="translate(679,1029.5)"><path
             d="m 0,0 c 0,-9.665 -7.835,-17.5 -17.5,-17.5 -9.665,0 -17.5,7.835 -17.5,17.5 0,9.665 7.835,17.5 17.5,17.5 C -7.835,17.5 0,9.665 0,0"
             style="fill:#f4f2ed;fill-opacity:1;fill-rule:nonzero;stroke:none"
             id="path348" /></g><g
           id="g350"
           transform="translate(714,883)"><path
             d="m 0,0 c 0,-8.284 -6.716,-15 -15,-15 -8.284,0 -15,6.716 -15,15 0,8.284 6.716,15 15,15 C -6.716,15 0,8.284 0,0"
             style="fill:#f4f2ed;fill-opacity:1;fill-rule:nonzero;stroke:none"
             id="path352" /></g><g
           id="g354"
           transform="translate(763,799)"><path
             d="m 0,0 c 0,-9.389 -7.611,-17 -17,-17 -9.389,0 -17,7.611 -17,17 0,9.389 7.611,17 17,17 C -7.611,17 0,9.389 0,0"
             style="fill:#f4f2ed;fill-opacity:1;fill-rule:nonzero;stroke:none"
             id="path356" /></g><g
           id="g358"
           transform="translate(746,941.5)"><path
             d="m 0,0 c 0,-8.561 -6.939,-15.5 -15.5,-15.5 -8.561,0 -15.5,6.939 -15.5,15.5 0,8.561 6.939,15.5 15.5,15.5 C -6.939,15.5 0,8.561 0,0"
             style="fill:#f4f2ed;fill-opacity:1;fill-rule:nonzero;stroke:none"
             id="path360" /></g><g
           id="g362"
           transform="translate(826,880.5)"><path
             d="m 0,0 c 0,-8.561 -6.939,-15.5 -15.5,-15.5 -8.561,0 -15.5,6.939 -15.5,15.5 0,8.561 6.939,15.5 15.5,15.5 C -6.939,15.5 0,8.561 0,0"
             style="fill:#f4f2ed;fill-opacity:1;fill-rule:nonzero;stroke:none"
             id="path364" /></g><g
           id="g366"
           transform="translate(699,790)"><path
             d="m 0,0 c 0,-10.494 -8.506,-19 -19,-19 -10.494,0 -19,8.506 -19,19 0,10.494 8.506,19 19,19 C -8.506,19 0,10.494 0,0"
             style="fill:#f4f2ed;fill-opacity:1;fill-rule:nonzero;stroke:none"
             id="path368" /></g><g
           id="g370"
           transform="translate(746,711.5)"><path
             d="m 0,0 c 0,-9.113 -7.387,-16.5 -16.5,-16.5 -9.113,0 -16.5,7.387 -16.5,16.5 0,9.113 7.387,16.5 16.5,16.5 C -7.387,16.5 0,9.113 0,0"
             style="fill:#f4f2ed;fill-opacity:1;fill-rule:nonzero;stroke:none"
             id="path372" /></g><g
           id="g374"
           transform="translate(796,671)"><path
             d="m 0,0 c 0,-9.389 -7.611,-17 -17,-17 -9.389,0 -17,7.611 -17,17 0,9.389 7.611,17 17,17 C -7.611,17 0,9.389 0,0"
             style="fill:#f4f2ed;fill-opacity:1;fill-rule:nonzero;stroke:none"
             id="path376" /></g><g
           id="g378"
           transform="translate(827,774)"><path
             d="m 0,0 c 0,-7.732 -6.268,-14 -14,-14 -7.732,0 -14,6.268 -14,14 0,7.732 6.268,14 14,14 C -6.268,14 0,7.732 0,0"
             style="fill:#f4f2ed;fill-opacity:1;fill-rule:nonzero;stroke:none"
             id="path380" /></g><g
           id="g382"
           transform="translate(751,607)"><path
             d="m 0,0 c 0,-9.389 -7.611,-17 -17,-17 -9.389,0 -17,7.611 -17,17 0,9.389 7.611,17 17,17 C -7.611,17 0,9.389 0,0"
             style="fill:#f4f2ed;fill-opacity:1;fill-rule:nonzero;stroke:none"
             id="path384" /></g><g
           id="g386"><g
             id="g388" /><g
             id="g400"><g
               clip-path="url(#clipPath392)"
               opacity="0.460007"
               id="g398"><g
                 transform="translate(530,677.5)"
                 id="g396"><path
                   d="m 0,0 c 0,-8.561 -6.939,-15.5 -15.5,-15.5 -8.561,0 -15.5,6.939 -15.5,15.5 0,8.561 6.939,15.5 15.5,15.5 C -6.939,15.5 0,8.561 0,0"
                   style="fill:#f4f2ed;fill-opacity:1;fill-rule:nonzero;stroke:none"
                   id="path394" /></g></g></g></g><g
           id="g402"><g
             id="g404" /><g
             id="g416"><g
               clip-path="url(#clipPath408)"
               opacity="0.5"
               id="g414"><g
                 transform="translate(549,619.5)"
                 id="g412"><path
                   d="m 0,0 c 0,-5.247 -4.253,-9.5 -9.5,-9.5 -5.247,0 -9.5,4.253 -9.5,9.5 0,5.247 4.253,9.5 9.5,9.5 C -4.253,9.5 0,5.247 0,0"
                   style="fill:#f4f2ed;fill-opacity:1;fill-rule:nonzero;stroke:none"
                   id="path410" /></g></g></g></g><g
           id="g418"><g
             id="g420" /><g
             id="g432"><g
               clip-path="url(#clipPath424)"
               opacity="0.630005"
               id="g430"><g
                 transform="translate(620,569.5)"
                 id="g428"><path
                   d="m 0,0 c 0,-6.903 -5.597,-12.5 -12.5,-12.5 -6.903,0 -12.5,5.597 -12.5,12.5 0,6.903 5.597,12.5 12.5,12.5 C -5.597,12.5 0,6.903 0,0"
                   style="fill:#f4f2ed;fill-opacity:1;fill-rule:nonzero;stroke:none"
                   id="path426" /></g></g></g></g><g
           id="g434"><g
             id="g436" /><g
             id="g448"><g
               clip-path="url(#clipPath440)"
               opacity="0.490005"
               id="g446"><g
                 transform="translate(652,671)"
                 id="g444"><path
                   d="m 0,0 c 0,-8.284 -6.716,-15 -15,-15 -8.284,0 -15,6.716 -15,15 0,8.284 6.716,15 15,15 C -6.716,15 0,8.284 0,0"
                   style="fill:#f4f2ed;fill-opacity:1;fill-rule:nonzero;stroke:none"
                   id="path442" /></g></g></g></g><g
           id="g450"><g
             id="g452" /><g
             id="g464"><g
               clip-path="url(#clipPath456)"
               opacity="0.580002"
               id="g462"><g
                 transform="translate(289,642.5)"
                 id="g460"><path
                   d="m 0,0 c 0,-7.456 -6.044,-13.5 -13.5,-13.5 -7.456,0 -13.5,6.044 -13.5,13.5 0,7.456 6.044,13.5 13.5,13.5 C -6.044,13.5 0,7.456 0,0"
                   style="fill:#f4f2ed;fill-opacity:1;fill-rule:nonzero;stroke:none"
                   id="path458" /></g></g></g></g><g
           id="g466"><g
             id="g468" /><g
             id="g480"><g
               clip-path="url(#clipPath472)"
               opacity="0.580002"
               id="g478"><g
                 transform="translate(417,628)"
                 id="g476"><path
                   d="m 0,0 c 0,-7.18 -5.82,-13 -13,-13 -7.18,0 -13,5.82 -13,13 0,7.18 5.82,13 13,13 C -5.82,13 0,7.18 0,0"
                   style="fill:#f4f2ed;fill-opacity:1;fill-rule:nonzero;stroke:none"
                   id="path474" /></g></g></g></g><g
           id="g482"><g
             id="g484" /><g
             id="g496"><g
               clip-path="url(#clipPath488)"
               opacity="0.470001"
               id="g494"><g
                 transform="translate(521,523)"
                 id="g492"><path
                   d="m 0,0 c 0,-6.075 -4.925,-11 -11,-11 -6.075,0 -11,4.925 -11,11 0,6.075 4.925,11 11,11 C -4.925,11 0,6.075 0,0"
                   style="fill:#f4f2ed;fill-opacity:1;fill-rule:nonzero;stroke:none"
                   id="path490" /></g></g></g></g><g
           id="g498"><g
             id="g500" /><g
             id="g512"><g
               clip-path="url(#clipPath504)"
               opacity="0.610001"
               id="g510"><g
                 transform="translate(232,542.5)"
                 id="g508"><path
                   d="m 0,0 c 0,-8.008 -6.492,-14.5 -14.5,-14.5 -8.008,0 -14.5,6.492 -14.5,14.5 0,8.008 6.492,14.5 14.5,14.5 C -6.492,14.5 0,8.008 0,0"
                   style="fill:#f4f2ed;fill-opacity:1;fill-rule:nonzero;stroke:none"
                   id="path506" /></g></g></g></g><g
           id="g514"><g
             id="g516" /><g
             id="g528"><g
               clip-path="url(#clipPath520)"
               opacity="0.509995"
               id="g526"><g
                 transform="translate(318,579.5)"
                 id="g524"><path
                   d="m 0,0 c 0,-8.008 -6.492,-14.5 -14.5,-14.5 -8.008,0 -14.5,6.492 -14.5,14.5 0,8.008 6.492,14.5 14.5,14.5 C -6.492,14.5 0,8.008 0,0"
                   style="fill:#f4f2ed;fill-opacity:1;fill-rule:nonzero;stroke:none"
                   id="path522" /></g></g></g></g><g
           id="g530"><g
             id="g532" /><g
             id="g544"><g
               clip-path="url(#clipPath536)"
               opacity="0.580002"
               id="g542"><g
                 transform="translate(665,620.5)"
                 id="g540"><path
                   d="m 0,0 c 0,-5.799 -4.701,-10.5 -10.5,-10.5 -5.799,0 -10.5,4.701 -10.5,10.5 0,5.799 4.701,10.5 10.5,10.5 C -4.701,10.5 0,5.799 0,0"
                   style="fill:#f4f2ed;fill-opacity:1;fill-rule:nonzero;stroke:none"
                   id="path538" /></g></g></g></g><g
           id="g546"><g
             id="g548" /><g
             id="g560"><g
               clip-path="url(#clipPath552)"
               opacity="0.440002"
               id="g558"><g
                 transform="translate(700,543.5)"
                 id="g556"><path
                   d="m 0,0 c 0,-5.247 -4.253,-9.5 -9.5,-9.5 -5.247,0 -9.5,4.253 -9.5,9.5 0,5.247 4.253,9.5 9.5,9.5 C -4.253,9.5 0,5.247 0,0"
                   style="fill:#f4f2ed;fill-opacity:1;fill-rule:nonzero;stroke:none"
                   id="path554" /></g></g></g></g><g
           id="g562"><g
             id="g564" /><g
             id="g576"><g
               clip-path="url(#clipPath568)"
               opacity="0.669998"
               id="g574"><g
                 transform="translate(474,565.5)"
                 id="g572"><path
                   d="m 0,0 c 0,-4.694 -3.806,-8.5 -8.5,-8.5 -4.694,0 -8.5,3.806 -8.5,8.5 0,4.694 3.806,8.5 8.5,8.5 C -3.806,8.5 0,4.694 0,0"
                   style="fill:#f4f2ed;fill-opacity:1;fill-rule:nonzero;stroke:none"
                   id="path570" /></g></g></g></g><g
           id="g578"><g
             id="g580" /><g
             id="g592"><g
               clip-path="url(#clipPath584)"
               opacity="0.289993"
               id="g590"><g
                 transform="translate(412,690.5)"
                 id="g588"><path
                   d="m 0,0 c 0,-5.799 -4.701,-10.5 -10.5,-10.5 -5.799,0 -10.5,4.701 -10.5,10.5 0,5.799 4.701,10.5 10.5,10.5 C -4.701,10.5 0,5.799 0,0"
                   style="fill:#f4f2ed;fill-opacity:1;fill-rule:nonzero;stroke:none"
                   id="path586" /></g></g></g></g><g
           id="g594"
           transform="translate(847,1003)"><path
             d="m 0,0 c 0,-18.778 -15.222,-34 -34,-34 -18.778,0 -34,15.222 -34,34 0,18.778 15.222,34 34,34 C -15.222,34 0,18.778 0,0"
             style="fill:#f4f2ed;fill-opacity:1;fill-rule:nonzero;stroke:none"
             id="path596" /></g><g
           id="g598"
           transform="translate(965,838)"><path
             d="m 0,0 c 0,-26.51 -21.49,-48 -48,-48 -26.51,0 -48,21.49 -48,48 0,26.51 21.49,48 48,48 C -21.49,48 0,26.51 0,0"
             style="fill:#f4f2ed;fill-opacity:1;fill-rule:nonzero;stroke:none"
             id="path600" /></g><g
           id="g602"><g
             id="g604" /><g
             id="g616"><g
               clip-path="url(#clipPath608)"
               opacity="0.570007"
               id="g614"><g
                 transform="translate(1281,969)"
                 id="g612"><path
                   d="m 0,0 c 0,-39.765 -32.235,-72 -72,-72 -39.765,0 -72,32.235 -72,72 0,39.765 32.235,72 72,72 C -32.235,72 0,39.765 0,0"
                   style="fill:#f4f2ed;fill-opacity:1;fill-rule:nonzero;stroke:none"
                   id="path610" /></g></g></g></g><g
           id="g618"
           transform="translate(1487,1012)"><path
             d="m 0,0 c 0,-23.748 -19.252,-43 -43,-43 -23.748,0 -43,19.252 -43,43 0,23.748 19.252,43 43,43 C -19.252,43 0,23.748 0,0"
             style="fill:#f4f2ed;fill-opacity:1;fill-rule:nonzero;stroke:none"
             id="path620" /></g><g
           id="g622"
           transform="translate(1080,1002.5)"><path
             d="M 0,0 C 0,-21.263 -17.237,-38.5 -38.5,-38.5 -59.763,-38.5 -77,-21.263 -77,0 -77,21.263 -59.763,38.5 -38.5,38.5 -17.237,38.5 0,21.263 0,0"
             style="fill:#f4f2ed;fill-opacity:1;fill-rule:nonzero;stroke:none"
             id="path624" /></g><g
           id="g626"
           transform="translate(965,1012)"><path
             d="m 0,0 c 0,-16.016 -12.984,-29 -29,-29 -16.016,0 -29,12.984 -29,29 0,16.016 12.984,29 29,29 C -12.984,29 0,16.016 0,0"
             style="fill:#f4f2ed;fill-opacity:1;fill-rule:nonzero;stroke:none"
             id="path628" /></g><g
           id="g630"
           transform="translate(1128,916.5)"><path
             d="M 0,0 C 0,-20.158 -16.342,-36.5 -36.5,-36.5 -56.658,-36.5 -73,-20.158 -73,0 -73,20.158 -56.658,36.5 -36.5,36.5 -16.342,36.5 0,20.158 0,0"
             style="fill:#f4f2ed;fill-opacity:1;fill-rule:nonzero;stroke:none"
             id="path632" /></g><g
           id="g634"
           transform="translate(1377,916.5)"><path
             d="m 0,0 c 0,-14.083 -11.193,-25.5 -25,-25.5 -13.807,0 -25,11.417 -25,25.5 0,14.083 11.193,25.5 25,25.5 C -11.193,25.5 0,14.083 0,0"
             style="fill:#f4f2ed;fill-opacity:1;fill-rule:nonzero;stroke:none"
             id="path636" /></g><g
           id="g638"
           transform="translate(1645,1003)"><path
             d="m 0,0 c 0,-18.778 -15.223,-34 -34,-34 -18.777,0 -34,15.222 -34,34 0,18.778 15.223,34 34,34 C -15.223,34 0,18.778 0,0"
             style="fill:#f4f2ed;fill-opacity:1;fill-rule:nonzero;stroke:none"
             id="path640" /></g><g
           id="g642"
           transform="translate(1882,963.5)"><path
             d="m 0,0 c 0,-28.995 -23.505,-52.5 -52.5,-52.5 -28.995,0 -52.5,23.505 -52.5,52.5 0,28.995 23.505,52.5 52.5,52.5 C -23.505,52.5 0,28.995 0,0"
             style="fill:#f4f2ed;fill-opacity:1;fill-rule:nonzero;stroke:none"
             id="path644" /></g><g
           id="g646"><g
             id="g648" /><g
             id="g660"><g
               clip-path="url(#clipPath652)"
               opacity="0.380005"
               id="g658"><g
                 transform="translate(1713,909)"
                 id="g656"><path
                   d="m 0,0 c 0,-9.941 -8.059,-18 -18,-18 -9.941,0 -18,8.059 -18,18 0,9.941 8.059,18 18,18 C -8.059,18 0,9.941 0,0"
                   style="fill:#f4f2ed;fill-opacity:1;fill-rule:nonzero;stroke:none"
                   id="path654" /></g></g></g></g><g
           id="g662"><g
             id="g664" /><g
             id="g676"><g
               clip-path="url(#clipPath668)"
               opacity="0.399994"
               id="g674"><g
                 transform="translate(943,934)"
                 id="g672"><path
                   d="m 0,0 c 0,-16.016 -12.984,-29 -29,-29 -16.016,0 -29,12.984 -29,29 0,16.016 12.984,29 29,29 C -12.984,29 0,16.016 0,0"
                   style="fill:#f4f2ed;fill-opacity:1;fill-rule:nonzero;stroke:none"
                   id="path670" /></g></g></g></g><g
           id="g678"><g
             id="g680" /><g
             id="g692"><g
               clip-path="url(#clipPath684)"
               opacity="0.539993"
               id="g690"><g
                 transform="translate(1060,815.5)"
                 id="g688"><path
                   d="M 0,0 C 0,-15.74 -12.76,-28.5 -28.5,-28.5 -44.24,-28.5 -57,-15.74 -57,0 -57,15.74 -44.24,28.5 -28.5,28.5 -12.76,28.5 0,15.74 0,0"
                   style="fill:#f4f2ed;fill-opacity:1;fill-rule:nonzero;stroke:none"
                   id="path686" /></g></g></g></g><g
           id="g694"><g
             id="g696" /><g
             id="g708"><g
               clip-path="url(#clipPath700)"
               opacity="0.440002"
               id="g706"><g
                 transform="translate(1356,1037)"
                 id="g704"><path
                   d="m 0,0 c 0,-16.016 -12.983,-29 -29,-29 -16.017,0 -29,12.984 -29,29 0,16.016 12.983,29 29,29 C -12.983,29 0,16.016 0,0"
                   style="fill:#f4f2ed;fill-opacity:1;fill-rule:nonzero;stroke:none"
                   id="path702" /></g></g></g></g><g
           id="g710"><g
             id="g712" /><g
             id="g724"><g
               clip-path="url(#clipPath716)"
               opacity="0.490005"
               id="g722"><g
                 transform="translate(1570,969.5)"
                 id="g720"><path
                   d="M 0,0 C 0,-18.501 -14.998,-33.5 -33.5,-33.5 -52.002,-33.5 -67,-18.501 -67,0 -67,18.501 -52.002,33.5 -33.5,33.5 -14.998,33.5 0,18.501 0,0"
                   style="fill:#f4f2ed;fill-opacity:1;fill-rule:nonzero;stroke:none"
                   id="path718" /></g></g></g></g><g
           id="g726"><g
             id="g728" /><g
             id="g740"><g
               clip-path="url(#clipPath732)"
               opacity="0.320007"
               id="g738"><g
                 transform="translate(1748,1014.5)"
                 id="g736"><path
                   d="M 0,0 C 0,-14.636 -11.864,-26.5 -26.5,-26.5 -41.136,-26.5 -53,-14.636 -53,0 -53,14.636 -41.136,26.5 -26.5,26.5 -11.864,26.5 0,14.636 0,0"
                   style="fill:#f4f2ed;fill-opacity:1;fill-rule:nonzero;stroke:none"
                   id="path734" /></g></g></g></g></g></g></g></svg>
