<svg xmlns="http://www.w3.org/2000/svg" version="1.1" xmlns:xlink="http://www.w3.org/1999/xlink" xmlns:svgjs="http://svgjs.com/svgjs" preserveAspectRatio="none" viewBox="0 0 1440 560">
    <g mask="url(&quot;#SvgjsMask1000&quot;)" fill="none">
        <rect width="1440" height="560" x="0" y="0" fill="#1e3266"></rect>
        <path d="M1512 560L0 560 L0 280.14Q103.08 263.22, 120 366.3Q135.88 310.18, 192 326.05Q236.8 298.85, 264 343.64Q298.7 258.34, 384 293.04Q452 241.05, 504 309.05Q588.13 273.18, 624 357.3Q689.21 302.51, 744 367.72Q746.76 298.48, 816 301.24Q842.59 255.83, 888 282.42Q977.94 252.37, 1008 342.31Q1019.21 281.52, 1080 292.74Q1151.05 243.79, 1200 314.84Q1266.53 309.37, 1272 375.89Q1308.15 292.04, 1392 328.19Q1462.2 278.39, 1512 348.59z" fill="#182f5d"></path>
        <path d="M1488 560L0 560 L0 359Q96.71 335.71, 120 432.41Q166.89 359.3, 240 406.19Q272.27 318.46, 360 350.72Q434.64 305.36, 480 380Q531.14 311.14, 600 362.29Q683.74 326.03, 720 409.77Q798.14 367.91, 840 446.06Q851.12 385.18, 912 396.3Q929.41 341.71, 984 359.11Q1032.75 335.86, 1056 384.61Q1137.82 346.43, 1176 428.25Q1204.62 336.87, 1296 365.48Q1345.57 343.05, 1368 392.61Q1443.71 348.33, 1488 424.04z" fill="#25467d"></path>
        <path d="M1560 560L0 560 L0 469.59Q38.82 436.41, 72 475.23Q152.25 435.49, 192 515.74Q211.51 415.25, 312 434.77Q379.65 382.42, 432 450.08Q498.36 396.44, 552 462.79Q594.51 433.31, 624 475.82Q640.63 420.45, 696 437.08Q767.89 388.98, 816 460.87Q857.88 382.75, 936 424.63Q977.62 394.25, 1008 435.86Q1066.95 422.81, 1080 481.77Q1131.22 413, 1200 464.22Q1276.02 420.24, 1320 496.26Q1389.8 446.06, 1440 515.86Q1463.76 419.62, 1560 443.38z" fill="#356cb1"></path>
        <path d="M1488 560L0 560 L0 570.41Q30.8 481.21, 120 512.01Q147.09 467.1, 192 494.19Q277.57 459.76, 312 545.33Q360.8 522.13, 384 570.93Q417.7 484.63, 504 518.32Q556.31 450.63, 624 502.95Q654.81 461.76, 696 492.57Q783.89 460.46, 816 548.35Q858.7 471.05, 936 513.75Q960.87 466.62, 1008 491.49Q1060.13 471.63, 1080 523.76Q1124.81 496.57, 1152 541.37Q1206.52 523.89, 1224 578.41Q1234.46 516.87, 1296 527.32Q1319.14 478.47, 1368 501.61Q1450.63 464.25, 1488 546.88z" fill="white"></path>
    </g>
    <defs>
        <mask id="SvgjsMask1000">
            <rect width="1440" height="560" fill="#ffffff"></rect>
        </mask>
    </defs>
</svg>