
<svg xmlns="http://www.w3.org/2000/svg" height="100%" stroke-miterlimit="10" style="fill-rule:nonzero;clip-rule:evenodd;stroke-linecap:round;stroke-linejoin:round;" version="1.1" viewBox="0 0 3840 2160" width="100%"> <metadata> </metadata> <defs/> <clipPath id="ArtboardFrame"> <rect height="2160" width="3840" x="0" y="0"/> </clipPath> <g clip-path="url(#ArtboardFrame)" id="Layer-4"> <path d="M-21.5008-18.6741L3863.6-18.6741L3863.6 1679.65L-21.5008 1679.65L-21.5008-18.6741Z" fill="#baebf4" fill-rule="evenodd" opacity="0.941729" stroke="none"/> <path d="M4838.41 834.564C4838.41 834.564 3439.14 711.979 2724.56 281.436C2009.98-149.107 1346.22 311.335 921.661 284.426C497.098 257.517 401.422 741.878 338.635 894.362C275.847 1046.85 374.513 1160.46 840.935 1088.7C1307.36 1016.95 1818.63 1049.84 2383.71 1055.82C2948.8 1061.8 3029.53 924.261 3747.1 1118.6C4464.67 1312.95 4838.41 834.564 4838.41 834.564Z" fill="#8ee2f1" fill-rule="evenodd" opacity="0.941729" stroke="none"/> <path d="M-402.391 602.257C-402.391 602.257 1999.13 954.159 2756.84 523.617C3514.55 93.0737 4218.37 553.515 4668.56 526.606C5118.75 499.698 5220.2 984.058 5286.78 1136.54C5353.35 1289.03 5248.73 1402.64 4754.16 1330.88C4259.58 1259.13 3717.46 1292.02 3118.26 1298C2519.07 1303.98 2433.47 1166.44 1672.59 1360.78C911.704 1555.13-402.391 602.257-402.391 602.257Z" fill="#73eafa" fill-rule="evenodd" opacity="0.941729" stroke="none"/> <path d="M-341.549 1445.66C-341.549 1445.66 1142.17 1323.08 1899.88 892.537C2657.59 461.994 3361.41 922.436 3811.6 895.527C4261.79 868.618 4363.24 1352.98 4429.82 1505.46C4496.39 1657.95 4391.77 1771.56 3897.2 1699.8C3402.62 1628.05 2860.5 1660.94 2261.3 1666.92C1662.11 1672.9 1576.51 1535.36 815.626 1729.7C54.7437 1924.05-341.549 1445.66-341.549 1445.66Z" fill="#b7f5fb" fill-rule="evenodd" opacity="0.941729" stroke="none"/> <path d="M2775.79 359.772C2883.43 273.065 3149.64 376.21 3326.05 409.099C3502.45 441.988 3702.66 380.701 3789.36 476.377C3876.07 572.053 3693.69 595.972 3520.28 607.932C3346.86 619.891 3113.65 539.165 2991.07 569.063C2868.48 598.962 2668.16 446.478 2775.79 359.772Z" fill="#ffffff" fill-rule="evenodd" opacity="0.639069" stroke="none"/> <path d="M3304.56 183.752C3196.92 97.0455 2930.71 200.191 2754.31 233.079C2577.91 265.968 2377.7 204.681 2290.99 300.357C2204.28 396.034 2386.67 419.953 2560.08 431.912C2733.49 443.872 2966.7 363.145 3089.29 393.044C3211.87 422.943 3412.2 270.459 3304.56 183.752Z" fill="#ffffff" fill-rule="evenodd" opacity="0.366279" stroke="none"/> </g> <g clip-path="url(#ArtboardFrame)" id="Layer-1"> <path d="M2915.01 544.322L2567.19 1686.79L3000.63 565.727L3803.3 1627.93L3115.68 490.811C3115.68 490.811 4041.43 809.204 4068.18 830.608C4094.94 852.013 3096.95 370.41 3096.95 370.41L3939.76-89.7878L3035.41 268.739L3000.63-92.4633L2939.09 239.307L2034.75-87.1122L2856.15 324.926L1761.84 908.2L2834.74 456.028L1850.14 1801.84L2915.01 544.322Z" fill="#ffe732" fill-rule="evenodd" opacity="0.225564" stroke="none"/> <path d="M2945.43 167.516L2996.18 167.516C3114.44 167.516 3210.32 273.909 3210.32 405.15L3210.32 405.15C3210.32 536.392 3114.44 642.785 2996.18 642.785L2945.43 642.785C2827.17 642.785 2731.3 536.392 2731.3 405.15L2731.3 405.15C2731.3 273.909 2827.17 167.516 2945.43 167.516Z" fill="#f1e376" fill-rule="evenodd" opacity="1" stroke="none"/> </g> <g clip-path="url(#ArtboardFrame)" id="Layer-2"> <path d="M-907.429 2137.99C-907.429 2137.99-238.868 1529.82-109.469 1560.01C661.887 1739.99 977.483 1334.21 2012.67 1598.83C2384.41 1693.85 3177.27 1421.98 3694.86 1516.88C4212.46 1611.77 4078.74 1741.17 4238.34 1866.25C4397.93 1991.34 3837.2 2353.66 3854.45 2465.8C3871.71 2577.95 1551.15 2793.61 1456.26 2810.86C1361.37 2828.12 15.617 2763.42 15.617 2763.42L-907.429 2137.99Z" fill="#94c83a" fill-rule="evenodd" opacity="1" stroke="none"/> <path d="M-1028.2 2517.56C-844.886 2310.52-135.348 2008.59 541.839 1831.75C873.964 1710.97 1046.5 1758.42 1680.55 1810.18C2314.61 1861.94 2569.09 1745.48 2896.9 1693.72C3224.71 1641.96 3733.68 1689.41 3932.09 1685.09C4130.5 1680.78 3992.48 2401.1 4005.42 2470.11C4018.36 2539.13 2012.67 2815.18 1999.73 2832.43C1986.79 2849.68 565.563 2738.62-191.421 2659.9C-948.405 2581.18-1211.52 2724.6-1028.2 2517.56Z" fill="#b2e656" fill-rule="evenodd" opacity="1" stroke="none"/> <path d="M3233.61 2634.02C3050.3 2426.98 2340.76 2125.05 1663.57 1948.21C1331.45 1827.43 1158.92 1874.88 524.86 1926.64C-109.195 1978.4-363.68 1861.94-691.49 1810.18C-1019.3 1758.42-1528.27 1805.87-1726.68 1801.55C-1925.09 1797.24-1787.07 2517.56-1800.01 2586.57C-1812.95 2655.59 192.736 2931.64 205.676 2948.89C218.616 2966.14 1639.85 2855.08 2396.83 2776.36C3153.82 2697.64 3416.93 2841.06 3233.61 2634.02Z" fill="#d3f29c" fill-rule="evenodd" opacity="1" stroke="none"/> <path d="M-898.802-1118.55L-885.862-1118.55L-885.862-1118.55L-898.802-1118.55Z" fill="#ececec" fill-rule="evenodd" opacity="1" stroke="none"/> <path d="M803.418 1798.44L1016.29 1795.88C1061.83 1795.88 1081.69 1844.61 1081.69 1844.61C1081.69 1890.41 1009.26 1875.38 963.711 1875.38L791.877 1894.62C746.332 1894.62 666.206 1848.45 666.206 1848.45C666.206 1802.65 757.873 1798.44 803.418 1798.44Z" fill="#bcbcbb" fill-rule="evenodd" opacity="0.567669" stroke="none"/> </g> <g id="Layer-3"> <path d="M822.595 974.482C741.198 992.769 680.551 816.997 761.94 833.317C689.917 788.631 846.56 760.009 901.032 795.795C887.21 728.979 889.927 748.684 889.927 748.684C889.927 748.684 903.048 676.686 912.249 668.06C941.734 640.418 978.656 660.456 1017.01 696.937C1067.34 744.803 996.482 578.236 1094.48 620.828C1192.48 663.421 1136.57 659.418 1145.77 754.239C1154.96 849.06 1115.43 623.648 1204.06 694.607C1292.69 765.565 1287.6 613.444 1339.38 706.87C1391.17 800.296 1461.07 919.922 1379.59 878.441C1438.53 938.547 1419.58 931.791 1345.05 957.566C1430.78 1030.74 1285.84 1110.26 1258.76 1020.61C1262.62 1103.94 1167.6 1052.23 1154.98 1005.06C1167.38 1087.53 1027.27 1070.45 1039.05 1039.81C981.902 1100.4 933.748 1121.6 887.289 1039.67C874.276 1094.86 743.667 1048.88 822.595 974.482Z" fill="#c2107b" fill-rule="evenodd" opacity="1" stroke="none"/> <path d="M968.43 953.36C901.103 968.91 850.94 819.437 918.26 833.315C858.687 795.314 988.252 770.974 1033.31 801.407C1021.88 744.587 1024.12 761.344 1024.12 761.344C1024.12 761.344 1034.98 700.118 1042.59 692.782C1066.97 669.276 1097.51 686.316 1129.24 717.339C1170.86 758.043 1112.26 616.398 1193.32 652.617C1274.37 688.837 1228.13 685.433 1235.74 766.068C1243.34 846.702 1210.65 655.015 1283.96 715.357C1357.27 775.699 1353.05 646.337 1395.88 725.786C1438.72 805.234 1496.54 906.962 1429.14 871.688C1477.89 922.801 1462.22 917.055 1400.57 938.974C1471.48 1001.2 1351.59 1068.83 1329.2 992.585C1332.4 1063.45 1253.8 1019.48 1243.36 979.362C1253.62 1049.49 1137.72 1034.97 1147.46 1008.91C1100.2 1060.44 1060.37 1078.47 1021.94 1008.79C1011.18 1055.73 903.146 1016.62 968.43 953.36Z" fill="#c2107b" fill-rule="evenodd" opacity="1" stroke="none"/> <path d="M989.632 685.07C922.306 700.62 872.143 551.146 939.463 565.024C879.89 527.024 1009.45 502.684 1054.51 533.117C1043.08 476.297 1045.33 493.054 1045.33 493.054C1045.33 493.054 1056.18 431.827 1063.79 424.492C1088.18 400.986 1118.72 418.026 1150.44 449.049C1192.07 489.753 1133.46 348.107 1214.52 384.327C1295.58 420.547 1249.34 417.143 1256.94 497.777C1264.55 578.412 1231.85 386.725 1305.16 447.067C1378.47 507.409 1374.25 378.047 1417.09 457.496C1459.92 536.944 1517.74 638.672 1450.34 603.398C1499.09 654.51 1483.42 648.765 1421.78 670.684C1492.68 732.911 1372.8 800.536 1350.4 724.295C1353.6 795.156 1275 751.187 1264.56 711.072C1274.82 781.204 1158.92 766.679 1168.67 740.622C1121.4 792.15 1081.57 810.177 1043.14 740.502C1032.38 787.439 924.348 748.332 989.632 685.07Z" fill="#af347e" fill-rule="evenodd" opacity="1" stroke="none"/> <path d="M405.987 1196.5C338.66 1212.05 288.497 1062.57 355.817 1076.45C296.244 1038.45 425.809 1014.11 470.866 1044.54C459.432 987.725 461.68 1004.48 461.68 1004.48C461.68 1004.48 472.533 943.256 480.143 935.92C504.532 912.414 535.071 929.454 566.796 960.477C608.421 1001.18 549.816 859.536 630.874 895.755C711.931 931.975 665.691 928.571 673.296 1009.21C680.9 1089.84 648.204 898.153 721.514 958.495C794.825 1018.84 790.607 889.476 833.441 968.924C876.275 1048.37 934.096 1150.1 866.699 1114.83C915.447 1165.94 899.778 1160.19 838.131 1182.11C909.039 1244.34 789.152 1311.96 766.754 1235.72C769.953 1306.58 691.355 1262.62 680.915 1222.5C691.174 1292.63 575.279 1278.11 585.022 1252.05C537.756 1303.58 497.926 1321.61 459.498 1251.93C448.734 1298.87 340.703 1259.76 405.987 1196.5Z" fill="#ae2e7b" fill-opacity="0.807223" fill-rule="evenodd" opacity="1" stroke="none"/> <path d="M1178.83 1042.23C1111.5 1057.78 1061.34 908.308 1128.66 922.186C1069.08 884.186 1198.65 859.846 1243.7 890.278C1232.27 833.458 1234.52 850.215 1234.52 850.215C1234.52 850.215 1245.37 788.989 1252.98 781.653C1277.37 758.147 1307.91 775.187 1339.63 806.21C1381.26 846.914 1322.65 705.269 1403.71 741.489C1484.77 777.708 1438.53 774.304 1446.13 854.939C1453.74 935.573 1421.04 743.887 1494.35 804.228C1567.66 864.57 1563.45 735.209 1606.28 814.657C1649.11 894.106 1706.93 995.833 1639.54 960.559C1688.29 1011.67 1672.62 1005.93 1610.97 1027.85C1681.88 1090.07 1561.99 1157.7 1539.59 1081.46C1542.79 1152.32 1464.19 1108.35 1453.75 1068.23C1464.01 1138.37 1348.12 1123.84 1357.86 1097.78C1310.59 1149.31 1270.76 1167.34 1232.34 1097.66C1221.57 1144.6 1113.54 1105.49 1178.83 1042.23Z" fill="#f16cbc" fill-opacity="0.829779" fill-rule="evenodd" opacity="1" stroke="none"/> <path d="M705.843 970.128C638.516 985.678 588.353 836.205 655.673 850.083C596.1 812.083 725.665 787.743 770.722 818.175C759.288 761.355 761.536 778.112 761.536 778.112C761.536 778.112 772.389 716.886 779.999 709.55C804.388 686.044 834.927 703.084 866.652 734.107C908.277 774.811 849.672 633.166 930.73 669.386C1011.79 705.605 965.547 702.201 973.152 782.836C980.756 863.47 948.06 671.784 1021.37 732.125C1094.68 792.467 1090.46 663.106 1133.3 742.554C1176.13 822.003 1233.95 923.73 1166.55 888.456C1215.3 939.569 1199.63 933.824 1137.99 955.742C1208.9 1017.97 1089.01 1085.59 1066.61 1009.35C1069.81 1080.21 991.211 1036.25 980.771 996.131C991.03 1066.26 875.135 1051.74 884.878 1025.68C837.612 1077.21 797.782 1095.24 759.354 1025.56C748.59 1072.5 640.559 1033.39 705.843 970.128Z" fill="#a43176" fill-opacity="0.995495" fill-rule="evenodd" opacity="1" stroke="none"/> <path d="M787.861 1846.59C787.861 1846.59 839.712 1731.2 875.605 1555.92C914.602 1365.48 939.029 1320.33 885.354 1183.63C872.927 1151.97 661.572 1144.95 581.734 1102.01C581.734 1102.01 875.589 1147.68 857.905 1107.41C840.221 1067.15 620.731 854.289 620.731 854.289L917.696 1094.55L899.282 725.418L971.705 1080.53L1428.53 672.437L998.167 1124.92C998.167 1124.92 1294.82 1122.05 1478.67 915.86C1280.9 1144.96 1018.33 1186.96 1017.67 1233.74C1016.27 1332.54 981.454 1502.94 980.062 1574.53C978.669 1646.13 1010.7 1806.5 996.775 1833.71C982.847 1860.91 787.861 1846.59 787.861 1846.59Z" fill="#37222e" fill-rule="evenodd" opacity="1" stroke="none"/> <g opacity="1"> <path d="M892.656 604.969C892.42 615.371 892.438 625.79 893.438 636.156C894.169 643.738 895.952 651.245 896.125 658.875C896.595 679.589 895.323 700.303 894.719 721C894.468 729.589 894.221 738.188 894.406 746.781C894.477 750.066 894.747 753.349 894.969 756.625C895.281 761.242 895.611 765.857 896 770.469C897.158 784.19 898.179 797.697 895.219 811.281C894.625 814.147 896.478 816.969 899.344 817.562C902.21 818.156 905 816.304 905.594 813.438C907.835 802.072 907.697 790.578 906.531 779.094C905.786 771.756 904.518 764.499 903.594 757.188C902.988 752.397 902.615 747.561 902.219 742.75C899.919 714.807 900.976 686.708 898.875 658.75C898.297 651.061 896.128 643.581 895 635.969C893.48 625.704 892.949 615.332 892.656 604.969Z" fill="#372121" stroke="none"/> </g> <g opacity="1"> <path d="M987.688 624.906C980.791 632.69 973.485 640.094 965.219 646.438C953.087 655.747 939.271 663.604 930.75 676.75C928.003 680.989 926.185 685.691 924.281 690.344C923.356 692.605 922.366 694.812 921.344 697.031C914.701 711.445 908.703 726.321 904.969 741.781C903.763 746.772 902.925 751.853 902.219 756.938C899.823 774.186 901.773 792.009 896.312 808.781C895.434 811.573 896.989 814.56 899.781 815.438C902.573 816.316 905.559 814.761 906.438 811.969C909.9 800.591 910.406 788.811 910.562 777C910.652 770.251 910.495 763.449 911.062 756.719C911.405 752.656 912.037 748.642 912.719 744.625C913.736 738.638 914.98 732.74 916.562 726.875C919.226 717.002 922.721 707.351 926.469 697.844C928.971 691.495 930.648 684.731 934.062 678.781C941.128 666.469 953.202 658.265 963.969 649.5C972.861 642.26 980.531 633.835 987.688 624.906Z" fill="#372121" stroke="none"/> </g> <path d="M391.468 1212.97C347.124 1314.66 122.539 1236.25 201.877 1162.74C101.082 1203.17 193.063 1012.81 271.309 983.854C193.063 944.202 215.089 957.345 215.089 957.345C215.089 957.345 152.404 884.74 150.783 867.905C145.59 813.958 194.359 790.894 260.864 779.688C348.123 764.986 124.97 704.95 243.699 635.112C362.428 565.275 315.222 621.635 418.216 689.022C521.21 756.409 262.726 615.063 402.912 578.307C543.098 541.55 385.316 423.15 519.78 443.978C654.244 464.807 829.193 487.641 724.338 540.771C830.623 526.848 809.166 541.55 777.696 642.018C917.882 610.162 886.412 829.477 774.835 785.369C862.094 849.08 736.444 908.327 678.993 883.386C771.974 937.296 646.53 1072.82 624.635 1035.31C641.801 1145.58 626.066 1214.2 507.337 1197.04C553.112 1255.85 405.773 1357.7 391.468 1212.97Z" fill="#cd6da7" fill-rule="evenodd" opacity="1" stroke="none"/> <path d="M481.986 604.743C413.089 608.695 387.525 452.774 451.707 477.848C399.026 430.291 530.72 428.195 570.294 465.833C568.108 407.853 567.643 424.762 567.643 424.762C567.643 424.762 588.145 366.205 596.825 360.257C624.642 341.195 652.04 363.168 678.369 399.134C712.914 446.323 677.771 296.696 751.929 346.131C826.087 395.566 781.022 384.388 775.621 465.21C770.22 546.033 768.639 351.427 831.296 423.346C893.953 495.264 910.491 366.951 940.03 452.562C969.568 538.172 1010.32 648.293 949.489 602.101C989.395 660.762 974.859 652.445 910.544 663.639C970.531 737.01 841.456 783.439 831.562 704.448C823.379 774.885 752.888 718.222 749.008 676.888C747.906 747.799 635.914 713.872 649.693 689.818C594.827 732.65 552.655 743.695 525.898 668.47C507.772 712.948 407.469 656.103 481.986 604.743Z" fill="#b85b93" fill-rule="evenodd" opacity="1" stroke="none"/> <path d="M674.368 786.524C605.471 790.476 579.907 634.554 644.089 659.629C591.408 612.071 723.103 609.975 762.676 647.613C760.49 589.634 760.025 606.542 760.025 606.542C760.025 606.542 780.527 547.986 789.207 542.037C817.024 522.976 844.422 544.948 870.751 580.914C905.296 628.104 870.153 478.476 944.311 527.912C1018.47 577.347 973.404 566.169 968.003 646.991C962.602 727.813 961.021 533.208 1023.68 605.126C1086.33 677.045 1102.87 548.732 1132.41 634.342C1161.95 719.953 1202.71 830.073 1141.87 783.881C1181.78 842.542 1167.24 834.225 1102.93 845.419C1162.91 918.791 1033.84 965.219 1023.94 886.228C1015.76 956.665 945.27 900.002 941.39 858.669C940.289 929.58 828.296 895.652 842.075 871.598C787.209 914.43 745.037 925.476 718.28 850.251C700.154 894.728 599.851 837.883 674.368 786.524Z" fill="#d2519f" fill-rule="evenodd" opacity="1" stroke="none"/> <path d="M1332.54 1200.78C1263.57 1198.41 1251.6 1040.77 1313.36 1071.62C1265 1019.43 1396.35 1029.38 1432.51 1070.49C1435.35 1012.54 1433.43 1029.34 1433.43 1029.34C1433.43 1029.34 1458.91 972.891 1468.07 967.76C1497.43 951.318 1522.82 975.708 1545.93 1013.94C1576.26 1064.1 1554.2 911.852 1623.78 967.872C1693.37 1023.89 1649.45 1008.64 1637.08 1088.65C1624.71 1168.65 1639.97 974.675 1696.16 1052.04C1752.34 1129.4 1779.92 1003.11 1801.93 1091.08C1823.95 1179.05 1855.02 1292.46 1798.42 1240.89C1833.09 1302.97 1819.33 1293.36 1754.31 1298.62C1807.71 1377.19 1675.13 1411.63 1672.11 1332.05C1657.86 1401.46 1592.55 1338.58 1592.26 1297.05C1585.03 1367.58 1476.42 1323.55 1492.22 1300.85C1433.87 1338.49 1390.91 1345.64 1370.77 1268.27C1348.86 1310.91 1253.88 1245.12 1332.54 1200.78Z" fill="#d22b8f" fill-rule="evenodd" opacity="1" stroke="none"/> <path d="M1397.24 1034.49C1328.75 1043.08 1293.28 889.227 1358.92 909.912C1303.32 866.015 1434.59 855.029 1476.48 889.912C1470.6 832.206 1471.21 849.109 1471.21 849.109C1471.21 849.109 1487.93 789.294 1496.21 782.772C1522.75 761.873 1551.49 781.948 1580.06 816.058C1617.55 860.812 1572.92 713.881 1650.08 758.201C1727.23 802.52 1681.55 794.41 1681.33 875.422C1681.1 956.435 1667.09 762.357 1734.21 829.887C1801.32 897.418 1809.63 768.266 1844.57 851.696C1879.52 935.126 1927.22 1042.26 1863.57 1000.27C1907.14 1056.11 1892.1 1048.79 1828.64 1064.31C1893.19 1133.47 1767.36 1188.52 1752.44 1110.36C1748.77 1181.2 1674.81 1129.42 1668.3 1088.44C1671.73 1159.27 1557.81 1132.98 1570.03 1108.05C1518.01 1154.5 1476.64 1168.37 1445.13 1095.11C1429.89 1140.72 1326.17 1090.77 1397.24 1034.49Z" fill="#d971b0" fill-rule="evenodd" opacity="1" stroke="none"/> <path d="M1616.44 767.544C1561.53 724.58 1640.51 588.9 1673.51 650.802C1663.45 579.469 1764.97 665.747 1771.31 720.786C1806.25 675.217 1795.23 687.771 1795.23 687.771C1795.23 687.771 1847.79 656.902 1858.15 658.168C1891.34 662.227 1898.31 697.224 1895.64 742.155C1892.13 801.106 1959.85 663.822 1985.06 750.913C2010.28 838.004 1983.05 799.431 1927.92 857.316C1872.79 915.2 1994.43 766.093 1996.7 862.614C1998.97 959.136 2092.55 872.553 2060.98 957.393C2029.41 1042.23 1990.9 1153.21 1973.78 1077.47C1967.11 1148.73 1961.3 1132.7 1905.31 1098.3C1904.63 1194.15 1777.12 1143.35 1819.46 1076.65C1768.77 1124.78 1750.91 1034.63 1774.05 1000.6C1728.45 1053.81 1664.66 953.275 1690.33 944.17C1621.55 940.146 1582.49 920.411 1609.62 845.328C1567.76 867.07 1527.33 756.898 1616.44 767.544Z" fill="#b8448a" fill-rule="evenodd" opacity="1" stroke="none"/> <path d="M1369.27 465.839C1314.36 422.874 1393.34 287.194 1426.34 349.096C1416.28 277.763 1517.8 364.041 1524.15 419.08C1559.08 373.512 1548.06 386.066 1548.06 386.066C1548.06 386.066 1600.62 355.196 1610.98 356.463C1644.17 360.522 1651.15 395.519 1648.47 440.449C1644.97 499.4 1712.68 362.117 1737.89 449.208C1763.11 536.299 1735.88 497.725 1680.75 555.61C1625.62 613.495 1747.26 464.387 1749.53 560.909C1751.8 657.431 1845.38 570.847 1813.81 655.688C1782.24 740.528 1743.74 851.501 1726.61 775.767C1719.94 847.022 1714.13 830.996 1658.14 796.598C1657.46 892.444 1529.95 841.642 1572.29 774.945C1521.6 823.072 1503.74 732.929 1526.88 698.895C1481.28 752.108 1417.49 651.57 1443.16 642.464C1374.38 638.441 1335.32 618.705 1362.45 543.622C1320.59 565.365 1280.16 455.192 1369.27 465.839Z" fill="#d971b0" fill-rule="evenodd" opacity="1" stroke="none"/> <path d="M1110.23 594.079C1042.9 609.629 992.741 460.156 1060.06 474.034C1000.49 436.033 1130.05 411.693 1175.11 442.126C1163.68 385.306 1165.92 402.063 1165.92 402.063C1165.92 402.063 1176.78 340.837 1184.39 333.501C1208.78 309.995 1239.31 327.035 1271.04 358.058C1312.66 398.762 1254.06 257.117 1335.12 293.336C1416.17 329.556 1369.94 326.152 1377.54 406.787C1385.14 487.421 1352.45 295.734 1425.76 356.076C1499.07 416.418 1494.85 287.056 1537.68 366.505C1580.52 445.953 1638.34 547.681 1570.94 512.407C1619.69 563.52 1604.02 557.774 1542.37 579.693C1613.28 641.92 1493.4 709.546 1471 633.304C1474.2 704.165 1395.6 660.196 1385.16 620.081C1395.42 690.213 1279.52 675.688 1289.27 649.631C1242 701.159 1202.17 719.187 1163.74 649.511C1152.98 696.449 1044.95 657.342 1110.23 594.079Z" fill="#c0458f" fill-rule="evenodd" opacity="1" stroke="none"/> <path d="M1117.28 897.553C1049.95 913.104 999.791 763.63 1067.11 777.508C1007.54 739.508 1137.1 715.168 1182.16 745.601C1170.73 688.781 1172.97 705.537 1172.97 705.537C1172.97 705.537 1183.83 644.311 1191.44 636.976C1215.83 613.469 1246.37 630.509 1278.09 661.532C1319.72 702.237 1261.11 560.591 1342.17 596.811C1423.23 633.031 1376.99 629.627 1384.59 710.261C1392.19 790.896 1359.5 599.209 1432.81 659.551C1506.12 719.893 1501.9 590.531 1544.74 669.98C1587.57 749.428 1645.39 851.156 1577.99 815.881C1626.74 866.994 1611.07 861.249 1549.42 883.168C1620.33 945.395 1500.45 1013.02 1478.05 936.779C1481.25 1007.64 1402.65 963.671 1392.21 923.556C1402.47 993.688 1286.57 979.163 1296.32 953.106C1249.05 1004.63 1209.22 1022.66 1170.79 952.986C1160.03 999.923 1052 960.816 1117.28 897.553Z" fill="#ec8ec7" fill-rule="evenodd" opacity="1" stroke="none"/> <path d="M852.734 599.932C793.138 634.904 700.572 507.27 768.962 500.382C700.751 481.935 817.109 419.964 869.204 435.531C841.303 384.73 848.459 400.048 848.459 400.048C848.459 400.048 840.506 338.378 845.575 329.102C861.818 299.378 896.055 306.506 935.606 326.623C987.498 353.017 889.217 235.378 977.397 245.701C1065.58 256.024 1020.43 266.604 1051.8 341.274C1083.17 415.945 994.651 242.807 1082.65 278.465C1170.65 314.124 1127.94 191.942 1192.58 254.946C1257.21 317.951 1342.8 397.733 1267.94 384.227C1329.74 418.423 1313.07 417.626 1260.8 456.977C1347.07 495.152 1252.89 595.534 1208.72 529.479C1232.97 596.141 1144.82 577.688 1122.86 542.531C1153.62 606.385 1038.68 627.182 1040.19 599.404C1010.49 662.708 977.878 691.821 920.373 636.826C924.138 684.834 809.355 679.822 852.734 599.932Z" fill="#d971b0" fill-rule="evenodd" opacity="1" stroke="none"/> <path d="M1010.56 1325.35C1002.23 1348.03 992.787 1373.05 981.664 1397.6C936.821 1496.6 935.76 1623.47 916.294 1709.24C906.086 1754.22 881.09 1808.27 859.505 1849.85C916.72 1851.29 988.515 1849.87 996.785 1833.72C1010.71 1806.51 978.668 1646.13 980.061 1574.54C981.081 1522.11 999.944 1416.82 1010.56 1325.35Z" fill="#4f3636" fill-rule="evenodd" opacity="1" stroke="none"/> </g> </svg>