<svg xmlns="http://www.w3.org/2000/svg" version="1.1" xmlns:xlink="http://www.w3.org/1999/xlink" xmlns:svgjs="http://svgjs.com/svgjs" width="1440" height="820" preserveAspectRatio="none" viewBox="0 0 1440 820">
    <g mask="url(&quot;#SvgjsMask1156&quot;)" fill="none">
        <!-- <rect width="1440" height="820" x="0" y="0" fill="rgba(219, 255, 255, 1)"></rect> -->
        <circle r="10.32" cx="48.48" cy="394.26" filter="url(#SvgjsFilter1157)" fill="rgba(46, 141, 163, 0.4)"></circle>
        <circle r="12.6" cx="1278.78" cy="542.07" filter="url(#SvgjsFilter1157)" fill="rgba(46, 141, 163, 0.4)"></circle>
        <circle r="13.545" cx="975.3549999999999" cy="32.275" filter="url(#SvgjsFilter1157)" fill="rgba(46, 141, 163, 0.4)"></circle>
        <circle r="10.725" cx="588.145" cy="625.3050000000001" filter="url(#SvgjsFilter1157)" fill="rgba(46, 141, 163, 0.4)"></circle>
        <circle r="9.395" cx="309.885" cy="119.125" filter="url(#SvgjsFilter1157)" fill="rgba(46, 141, 163, 0.4)"></circle>
        <circle r="6.93" cx="168.03" cy="563.91" filter="url(#SvgjsFilter1157)" fill="rgba(46, 141, 163, 0.4)"></circle>
        <circle r="12.6" cx="588.85" cy="58.61" filter="url(#SvgjsFilter1157)" fill="rgba(46, 141, 163, 0.4)"></circle>
        <circle r="8.515" cx="535.475" cy="259.855" filter="url(#SvgjsFilter1157)" fill="rgba(46, 141, 163, 0.4)"></circle>
        <circle r="8.005" cx="1258.285" cy="696.855" filter="url(#SvgjsFilter1157)" fill="rgba(46, 141, 163, 0.4)"></circle>
        <circle r="7.64" cx="604.25" cy="732.53" filter="url(#SvgjsFilter1157)" fill="rgba(46, 141, 163, 0.4)"></circle>
        <circle r="13.505" cx="935.485" cy="765.135" filter="url(#SvgjsFilter1157)" fill="rgba(46, 141, 163, 0.4)"></circle>
        <circle r="8.51" cx="680.8199999999999" cy="38.03" filter="url(#SvgjsFilter1157)" fill="rgba(46, 141, 163, 0.4)"></circle>
        <circle r="12.795" cx="1048.415" cy="384.52500000000003" filter="url(#SvgjsFilter1157)" fill="rgba(46, 141, 163, 0.4)"></circle>
        <circle r="11.49" cx="1219.73" cy="17" filter="url(#SvgjsFilter1157)" fill="rgba(46, 141, 163, 0.4)"></circle>
        <circle r="10.595" cx="1167.425" cy="202.315" filter="url(#SvgjsFilter1157)" fill="rgba(46, 141, 163, 0.4)"></circle>
        <circle r="9.14" cx="1106.2800000000002" cy="123.57000000000001" filter="url(#SvgjsFilter1157)" fill="rgba(46, 141, 163, 0.4)"></circle>
        <circle r="11.36" cx="473.76" cy="809.44" filter="url(#SvgjsFilter1157)" fill="rgba(46, 141, 163, 0.4)"></circle>
        <circle r="11.47" cx="1328.08" cy="325.63000000000005" filter="url(#SvgjsFilter1157)" fill="rgba(46, 141, 163, 0.4)"></circle>
        <circle r="8.62" cx="1045.8899999999999" cy="20.409999999999997" filter="url(#SvgjsFilter1157)" fill="rgba(46, 141, 163, 0.4)"></circle>
        <circle r="7.915" cx="267.14500000000004" cy="565.675" filter="url(#SvgjsFilter1157)" fill="rgba(46, 141, 163, 0.4)"></circle>
        <path d="M802.8 610.4L773.6 566 783.6 519.8 818.7 551.5 821 604.5C821 604.5 821.2 605.1 821.2 605.1 821.6 606.4 823.2 607.2 824.7 607.4 826.7 607.4 828.1 605.6 827.5 603.8L825.3 557.4 842.4 572.7 843.6 593.2C843.6 593.2 843.8 593.8 843.8 593.8 844.2 595 845.8 595.9 847.2 596.1 849.3 596.1 850.7 594.3 850.1 592.4L849.6 578.5 862.1 589.9C863.1 591 865.7 590.8 866.7 589.8 868.3 588.6 867.6 586.1 866.6 585.1L854.1 573.7 868.1 573.2C870.1 573.2 871.5 571.4 871 569.6 871 567.5 869.2 566.1 867.3 566.7L846.9 567.9 830.4 552.4 876.8 550.2C878.8 550.2 880.3 548.4 879.7 546.6 879.7 544.6 877.9 543.1 876.1 543.7L823 546.1 787.9 514.4 833.6 499.6 881.1 523.9C882.7 524.7 884.5 524.2 885.4 522.5 886.2 520.9 885.6 519.1 884 518.3L842.1 496.8 864 489.8 881.7 498.8C883.3 499.7 885.2 499.1 886 497.5 886.8 495.8 886.2 494 884.6 493.2L872.5 487 889.6 481.5C891.6 481.5 892.2 479.3 891.6 477.5 891.1 475.6 889.4 474.8 887.6 475.4L871.8 480.5 878 468.4C878.8 466.8 878.2 465 876.6 464.2S873.2 463.9 872.3 465.6L863.3 483.3 841.3 490.4 862.8 448.5C863.6 446.9 863 445 861.4 444.2 859.8 443.4 858 444 857.1 445.6L832.8 493.1 787.7 507.7 797.7 461.4 841.1 433.3C842.7 432.1 842.7 430.1 842.1 428.2 840.9 426.6 838.9 426.6 837.1 427.2L798.2 452.5 803 430.1 820.3 419.1C822 417.9 822 415.9 821.4 414.1 820.2 412.4 818.2 412.4 817 412.8L805.3 420.6 808.7 404C809 402.6 808.2 400.2 806.1 400.2 804.1 400.2 802.3 400.7 802.3 402.8L798.9 419.3 791.1 407.7C789.9 406.1 787.9 406.1 786.7 406.5 785.6 407.5 784.8 409.1 785.2 410.3 785.2 410.3 785.4 410.9 785.4 410.9L796.4 428.2 791.5 450.6 766.2 411.7C765 410.1 762.9 410.1 761.7 410.5 760.7 411.5 759.9 413.1 760.3 414.3 760.3 414.3 760.5 414.9 760.5 414.9L789.6 459.3 779.7 505.6 744.5 473.9 742.2 420.8C742.2 418.8 740.4 417.4 738.6 418 736.6 417.9 735.1 419.7 735.7 421.6L737.9 467.9 720.9 452.6 719.6 432.1C719.6 430.1 717.8 428.7 716 429.3 714 429.3 712.6 431.1 713.1 432.9L713.6 446.9 701.2 435.4C700.2 434.4 697.5 434.6 696.5 435.6 695.5 436.6 695.3 438 695.7 439.2 695.9 439.8 696.1 440.4 696.9 440.8L709.3 452.3 695.4 452.8C693.3 452.8 691.9 454.6 692.5 456.4 692.5 456.4 692.7 457 692.7 457 693.1 458.2 694.7 459 696.1 459.3L716.6 458 733.6 473.4 687.2 475.6C685.2 475.5 683.8 477.4 684.4 479.2 684.4 479.2 684.6 479.8 684.6 479.8 685 481 686.6 481.8 688 482L741 479.7 776.2 511.4 731.1 526 683.6 501.6C681.9 500.8 680.1 501.4 679.3 503 678.5 504.6 679.1 506.5 680.7 507.3L722 528.9 700 536 682.3 526.9C680.7 526.1 678.9 526.7 678.1 528.3S677.8 531.7 679.4 532.6L691.5 538.8 675.7 543.9C673.9 544.5 673 546.1 673.6 547.9 674.2 549.7 675.8 550.5 677.6 550L693.5 544.8 687.3 556.9C686.9 557.7 686.5 558.5 686.9 559.8S688.1 561.4 688.9 561.8C690.5 562.6 692.3 562 693.1 560.4L702.2 542.7 724.1 535.6 702.7 577.5C702.3 578.3 701.9 579.1 702.3 580.3 702.5 581 703.5 582 704.3 582.4 705.9 583.2 707.7 582.6 708.5 581L732.9 533.5 777.9 518.9 768 565.2 723.6 594.3C722.6 595.3 721.7 596.9 722.1 598.1 722.1 598.1 722.3 598.7 722.3 598.7 723.5 600.4 725.5 600.4 726.8 600L765.7 574.7 760.8 597.1 743.5 608.1C742.5 609.1 741.6 610.7 742 611.9 742 611.9 742.2 612.5 742.2 612.5 743.4 614.1 745.5 614.1 746.7 613.7L758.3 606 754.9 622.5C755.1 623.1 754.7 623.9 754.9 624.6 755.3 625.8 756.3 626.8 757.7 627 759.7 627 761.5 626.4 761.6 624.4L764.9 607.8 772.7 619.5C773.9 621.1 776 621.1 777.2 620.7 778.8 619.5 778.8 617.5 778.4 616.3L767.5 599 772.3 576.5 797.7 615.4C798.9 617.1 800.9 617.1 802.1 616.7 803.3 614.3 804 612.1 802.8 610.4Z" fill="rgba(46, 141, 163, 0.4)"></path>
        <path d="M1109.4 361.2L1129.4 351.2 1129.1 364.7C1129 366.1 1130.3 367.7 1132.2 368.2 1134 367.8 1135.6 366.5 1135.2 364.7L1136.1 347.9 1151.3 339.4 1149.4 374.6C1149.8 376.3 1151.1 377.9 1152.5 378 1154.8 378 1156.4 376.7 1156 374.9L1158 336 1181.7 323.8 1176.9 354.1 1202.2 336.9 1201.2 363.5 1166.8 381.8C1166.3 381.5 1165.9 382 1165.6 382.6 1164.9 383.6 1164.7 385.1 1165.5 386.3 1166.2 387.5 1168.2 388 1169.9 387.6L1201 371 1199.8 388.4 1184.9 396.3C1184 396.5 1183.6 397.1 1183.3 397.6 1182.9 398.2 1182.8 399.6 1183.5 400.8 1184.3 402 1186.2 402.5 1187.5 401.8L1199.6 395.9 1199 418.2C1198.5 420.2 1200.1 421.2 1202.1 421.7 1203.5 421.9 1205.1 420.6 1205 418.3L1206.2 396.2 1217.5 403.5C1219.1 404.5 1221.2 403.6 1221.9 402.5 1222.9 400.9 1222.6 399.1 1220.9 398.1L1206.4 388.8 1207.6 371.4 1236.7 389.9C1238.4 390.9 1240.1 390.6 1241.2 388.9 1241.8 387.9 1241.8 385.5 1240.2 384.5L1207.8 363.9 1208.8 337.2 1232.5 356.1 1230.4 326 1253.1 340.4 1251.4 378.8C1251.5 381.1 1253.1 382.1 1254.5 382.3 1255.9 382.4 1257.5 381.1 1258 379.2L1259 344.2 1273.6 353.4 1273.3 370.7C1272.8 372.6 1274 374.2 1276.4 374.2 1277.8 374.3 1279.3 373 1279.3 370.7L1280.1 357.6 1299 369.6C1300.6 370.6 1302.4 370.2 1303.4 368.6S1304 365.2 1302.4 364.2L1283.5 352.2 1295.1 345.9C1297.2 345 1297.7 343 1297 341.8 1296 339.6 1294.1 339.2 1292.5 340.4L1277 348 1262.5 338.8 1293.7 323C1295.3 321.7 1295.8 319.8 1295.1 318.5 1294.1 316.4 1292.2 315.9 1290.6 317.2L1256.5 335 1233.8 320.6 1262 309.7 1234.9 296.2 1258.6 284 1291 304.6C1292.6 305.6 1294.8 304.7 1295.4 303.6 1296.5 302 1296.1 300.2 1294.5 299.2L1264.8 280.3 1280.6 272.2 1295.2 281.4C1296.8 282.5 1298.5 282.1 1299.6 280.5 1300.3 279.4 1300.2 277.1 1298.6 276L1287.2 268.8 1306.7 258.5C1308.8 257.5 1309.3 255.6 1308.1 254 1307.3 252.8 1305.7 251.7 1304.1 253L1284.1 263 1284.4 249.5C1284.5 248.1 1283.2 246.5 1281.8 246.4 1280.4 246.2 1279.1 247 1278.8 247.5 1278.5 248.1 1278.1 248.6 1278.3 249.5L1277.4 266.4 1262.2 274.9 1264.1 239.7C1263.7 237.9 1262.4 236.3 1261 236.2 1259.6 236 1258.3 236.8 1257.6 237.8 1257.3 238.4 1257.3 238.4 1257.5 239.3L1255.5 278.2 1231.8 290.4 1236.6 260.1 1211.3 277.4 1212.3 250.7 1246.7 232.4C1247.9 231.7 1249 230 1248 227.9 1247.3 226.7 1245.3 226.2 1243.6 226.6L1212.5 243.2 1213.7 225.8 1228.6 217.9C1230.4 217.5 1230.9 215.5 1230 213.4 1229.2 212.2 1227.3 211.7 1225.5 212.1L1213.9 218.4 1214.5 196C1215 194 1213.4 193 1211.4 192.5 1210.5 192.7 1209.3 193.4 1209 194 1208.6 194.5 1208.3 195 1208.5 195.9L1207.3 218 1196 210.8C1194.4 209.7 1192.3 210.7 1191.6 211.7L1191.6 211.7C1190.5 213.4 1190.9 215.1 1192.6 216.2L1207.1 225.4 1205.9 242.9 1176.8 224.3C1175.1 223.3 1173.4 223.7 1172.3 225.3S1171.7 228.7 1173.3 229.7L1205.7 250.3 1204.7 277 1181 258.1 1183.1 288.3 1160.4 273.8 1162.1 235.4C1162 233.1 1160.4 232.1 1159 232 1157.6 231.8 1156 233.1 1155.5 235.1L1153.9 269.7 1139.9 260.8 1140.2 243.5C1140.7 241.6 1139.5 240 1137.1 240.1 1135.7 239.9 1134.2 241.2 1133.7 243.2L1133.4 256.6 1114.5 244.6C1112.9 243.6 1111.1 244 1110.1 245.6S1109.5 249 1111.1 250L1130 262 1118.4 268.3C1117.5 268.5 1117.2 269.1 1116.8 269.6 1116.1 270.7 1116.3 271.6 1116.5 272.5 1117.5 274.6 1119.4 275.1 1121 273.8L1136.5 266.2 1151 275.4 1119.8 291.2C1119.4 291.7 1119.1 292.3 1118.7 292.8 1118.1 293.9 1118.2 294.8 1118.4 295.7 1119.4 297.8 1121.3 298.3 1122.9 297L1157 279.2 1179.7 293.7 1151.5 304.6 1178.6 318 1154.9 330.2 1122.5 309.6C1120.8 308.6 1118.7 309.5 1118.1 310.6 1117 312.2 1117.4 314 1119 315L1148.2 333.6 1132.9 342.1 1118.3 332.8C1116.7 331.8 1115 332.1 1113.9 333.8S1113.3 337.1 1114.9 338.2L1126.2 345.4 1106.8 355.8C1105.9 355.9 1105.5 356.5 1105.2 357 1104.8 357.6 1104.7 359 1105.4 360.2 1106.2 361.4 1107.8 362.5 1109.4 361.2ZM1166.9 305.3L1190 296.5 1188.2 271.8 1207.9 287.4 1228.1 273.6 1224.7 298 1246.6 308.9 1223.5 317.8 1225.3 342.4 1206.1 327.2 1185.4 340.6 1189.4 316.5 1166.9 305.3Z" fill="rgba(46, 141, 163, 0.4)"></path>
        <path d="M298.3 732.6L321.4 745.7 327.5 768.6 304.6 762.4 291.5 739.4C291.5 739.4 291.3 739.1 291.3 739.1 290.8 738.7 289.9 738.7 289.2 738.9 288.3 739.4 288.1 740.5 288.8 741.2L300.3 761.3 289.2 758.4 284 749.5C284 749.5 283.8 749.3 283.8 749.3 283.4 748.9 282.5 748.9 281.8 749.1 280.9 749.5 280.6 750.7 281.3 751.3L284.7 757.5 276.6 755.2C275.9 755 274.8 755.6 274.5 756.3 274.1 757.2 275 758.1 275.7 758.4L283.8 760.6 277.7 764C276.8 764.5 276.6 765.6 277.2 766.3 277.7 767.2 278.8 767.4 279.5 766.7L288.3 761.5 299.2 764.7 279 776.2C278.1 776.7 277.9 777.8 278.6 778.5 279 779.4 280.2 779.6 280.9 779L303.9 765.8 326.8 772 309.8 788.9 283.1 788.9C282.2 788.9 281.5 789.6 281.5 790.5 281.5 791.4 282.2 792.1 283.1 792.1L306.6 792.1 298.5 800.2 288.5 800.2C287.6 800.2 287 800.9 287 801.8 287 802.7 287.6 803.4 288.5 803.4L295.3 803.4 289 809.7C288.1 810.2 288.3 811.3 289 812 289.7 812.7 290.6 812.7 291.2 812L297.1 806.1 297.1 812.9C297.1 813.8 297.8 814.5 298.7 814.5S300.3 813.8 300.3 812.9L300.3 802.9 308.5 794.8 308.4 818.3C308.4 819.2 309.1 819.9 310 819.9 310.9 819.9 311.6 819.2 311.6 818.3L311.6 791.6 328.4 774.9 334.5 797.8 321.6 820.2C321.1 821.1 321.6 822 322.2 822.6 323.1 823.1 324.1 822.6 324.7 822L336.3 801.8 339.2 812.9 334 821.7C333.6 822.7 334 823.6 334.7 824.2 335.6 824.7 336.5 824.2 336.9 823.8L340.3 817.7 342.6 825.8C342.8 826.5 343.7 827.4 344.6 827 345.5 826.5 346.2 825.8 345.8 824.9L343.5 816.8 349.6 820.2C350.5 820.6 351.4 820.2 351.9 819.7 352.1 819 352.1 818.1 351.7 817.7 351.7 817.7 351.4 817.5 351.4 817.5L342.6 812.2 339.7 801.2 359.8 812.7C360.7 813.2 361.6 812.7 362.1 812.3 362.3 811.6 362.3 810.7 361.8 810.2 361.8 810.2 361.6 810 361.6 810L338.5 796.9 332.4 774 355.3 780.1 368.4 803.2C368.9 804.1 370 804.3 370.7 803.7 371.6 803.2 371.8 802.1 371.1 801.4L359.6 781.3 370.7 784.2 375.9 793C376.3 793.9 377.5 794.2 378.1 793.5 379.1 793 379.3 791.9 378.6 791.2L375.2 785.1 383.4 787.4C384 787.6 385.2 786.9 385.4 786.2 385.6 785.6 385.4 784.9 384.9 784.4 384.7 784.2 384.5 784 384 784L375.9 781.7 382 778.3C382.9 777.9 383.1 776.7 382.5 776.1 382.5 776.1 382.2 775.8 382.2 775.8 381.8 775.4 380.9 775.4 380.2 775.6L371.4 780.8 360.3 777.9 380.4 766.3C381.3 765.9 381.6 764.8 380.9 764.1 380.9 764.1 380.7 763.8 380.7 763.8 380.2 763.4 379.3 763.4 378.6 763.6L355.5 776.7 332.7 770.6 349.4 753.9 376.1 753.9C377 753.9 377.7 753.2 377.7 752.3 377.7 751.4 377 750.7 376.1 750.7L352.8 750.5 361 742.3 370.9 742.3C371.8 742.3 372.5 741.7 372.5 740.8S371.8 739.2 370.9 739.2L364.1 739.2 370 733.3C370.7 732.6 370.7 731.7 370 731 369.4 730.4 368.5 730.4 367.8 731L361.9 736.9 361.9 730.1C361.9 729.7 361.9 729.2 361.4 728.8S360.5 728.3 360.1 728.3C359.2 728.3 358.5 729 358.5 729.9L358.5 739.8 350.3 748 350.4 724.5C350.4 724 350.4 723.6 349.9 723.1 349.7 722.9 349 722.6 348.5 722.6 347.6 722.6 347 723.3 347 724.2L346.9 750.9 330.2 767.7 324.1 744.8 337.2 721.7C337.5 721.1 337.5 720.2 337 719.7 337 719.7 336.8 719.5 336.8 719.5 335.9 719 335 719.5 334.5 719.9L323 740.1 320 729 325.2 720.1C325.5 719.5 325.5 718.6 325 718.1 325 718.1 324.8 717.9 324.8 717.9 323.9 717.4 323 717.9 322.5 718.3L319.1 724.4 316.9 716.3C316.6 716.1 316.6 715.6 316.4 715.4 316 714.9 315.3 714.7 314.6 714.9 313.7 715.4 313 716.1 313.5 717L315.7 725.1 309.6 721.7C308.7 721.3 307.8 721.7 307.4 722.2 306.9 723.1 307.4 724 307.8 724.4L316.6 729.6 319.6 740.7 299.4 729.2C298.5 728.7 297.6 729.2 297.2 729.6 297.2 731 297.4 732.1 298.3 732.6Z" fill="rgba(46, 141, 163, 0.4)"></path>
        <path d="M1462.4 623L1434.4 640.6 1425.4 638.8 1419.3 619.3 1425.5 612.3 1458.7 611.2C1459.1 611 1459.1 611 1459.5 610.9 1460.2 610.7 1460.9 610.1 1460.9 608.8 1460.5 607.6 1459.9 607 1458.6 607L1429.6 608.1 1439.3 597.5 1452.1 596.9C1452.1 596.9 1452.5 596.7 1452.5 596.7 1453.3 596.5 1453.9 595.9 1453.9 594.6 1454.1 593.7 1453 592.8 1451.7 592.8L1443.3 592.9 1450.6 585.2C1451.2 584.6 1451.2 583.3 1450.5 582.3S1448.2 581.7 1447.2 582.5L1440.4 590.1 1439.9 581.8C1439.9 580.6 1438.8 579.7 1437.5 579.6 1436.7 579.9 1435.7 580.6 1435.7 581.9L1436.3 594.7 1426.3 605.4 1425.2 576.4C1425.2 575.1 1424.1 574.2 1423.2 574.1 1422 574.4 1421 575.2 1421 576.4L1422.5 609.5 1416 616.6 1396.6 612.2 1393.7 603 1408.8 573.6C1409.3 572.6 1408.9 571.4 1407.9 570.9S1405.8 570.7 1405.3 571.7L1392 597.7 1387.6 583.5 1393.4 572.5C1393.9 571.5 1393.5 570.4 1392.4 569.5S1390.3 569.3 1389.7 570.3L1385.9 578.2 1382.7 567.9C1382.3 566.7 1380.9 566.3 1379.8 566.7 1378.7 567.1 1378.1 568.1 1378.5 569.2L1381.7 579.5 1374.2 575.6C1373.1 574.7 1371.9 575 1371.5 576.4 1371 577.4 1371.4 578.6 1372.4 579.1L1383.4 584.9 1387.8 599 1362.1 585.2C1361.1 584.7 1359.6 585.2 1359.1 586.2S1358.9 588.3 1359.9 588.9L1389.5 604.3 1392.4 613.5 1378.5 628.3 1369.5 626.1 1351.9 598.1C1351.2 597 1349.9 597 1348.7 597.4 1347.7 598.1 1347.7 599.4 1348.1 600.5L1363.7 625 1349.7 621.8 1342.9 610.9C1342.2 609.9 1340.9 609.9 1339.8 610.2 1339.1 610.9 1338.7 612.3 1339.5 613.3L1343.8 620.3 1333.4 618.1C1332.6 618 1331.5 618.7 1331 619.7 1331 621 1331.7 622 1332.6 622.1L1342.9 624.3 1335.6 629.1C1335 629.8 1334.6 631.2 1335.2 631.8 1335.6 632.9 1336.5 633.1 1337.6 632.7 1337.6 632.7 1338 632.6 1338 632.6L1348.9 625.8 1362.8 629 1338.4 644.6C1337.4 645.4 1336.8 646.4 1337.6 647.4 1338.3 648.4 1339.2 648.6 1340 648.3 1340.4 648.2 1340.4 648.2 1340.4 648.2L1368.6 630.1 1377.7 632.3 1383.8 651.8 1377.5 658.4 1344.1 660C1343.2 659.9 1342.3 661 1342.1 661.9 1342.1 663.2 1343.2 664.1 1344.5 664.1L1373.5 663 1363.8 673.6 1351 674.2C1349.8 674.2 1348.7 674.9 1349.1 676.1 1349.1 677.3 1350.2 678.2 1351.1 678.4L1359.7 677.8 1352.5 685.5C1351.9 686.5 1351.9 687.8 1352.6 688.8 1353.1 689.1 1354 689.2 1354.8 689 1355.2 688.8 1355.2 688.8 1355.4 688.3L1362.7 680.6 1363.3 689.2C1363.2 690.5 1364.2 691 1365.1 691.2 1365.5 691.1 1365.5 691.1 1365.9 690.9 1366.7 690.7 1367.3 690.1 1367.4 689.2L1366.8 676.4 1376.5 665.8 1377.6 694.8C1377.9 696 1378.7 697 1379.8 696.6 1380.3 696.9 1380.3 696.9 1380.7 696.8 1381.5 696.5 1382 695.5 1382.1 694.6L1380.5 661.2 1386.8 654.6 1406.6 658.9 1409.3 667.7 1393.9 697.3C1393.3 698.3 1393.8 699.8 1394.8 700.3S1397.3 700.4 1397.9 699.4L1411.1 673.4 1415.4 687.2 1409.8 698.6C1409.3 699.6 1409.6 700.7 1410.6 701.2 1411.6 701.8 1412.8 701.4 1413.3 700.4L1417.2 692.9 1420.4 703.2C1420.7 704 1421.8 704.9 1423 704.5 1424.1 704.1 1424.9 702.6 1424.6 701.9L1421.4 691.6 1428.9 695.5C1429.4 695.8 1429.9 696 1430.3 695.9 1431.1 695.7 1431.3 695.2 1431.6 694.7 1432.1 693.7 1431.8 692.5 1430.8 692L1419.6 685.8 1415.3 672.1 1441 685.9C1441.5 686.1 1441.9 686 1442.7 685.8 1443 685.6 1443.4 685.5 1443.7 685 1444.2 684 1443.7 682.5 1442.7 682L1413.5 666.4 1410.8 657.6 1424.2 642.9 1433.5 644.6 1451.2 673C1451.9 673.7 1452.9 674.2 1453.6 673.9 1454 673.8 1454 673.8 1453.9 673.4 1455 673.1 1455.4 671.7 1454.7 670.7L1439.1 646.2 1453.4 649.3 1460.2 660.1C1460.8 660.8 1461.7 660.9 1462.5 660.7 1462.5 660.7 1462.8 660.6 1462.8 660.6 1464 660.2 1464.4 658.8 1463.7 657.8L1458.9 650.5 1469.2 652.7C1469.7 653 1470.1 652.9 1470.5 652.7 1471.2 652.5 1471.9 651.9 1471.7 651.5 1472.1 650.1 1471.4 649.1 1470.4 648.6L1460.1 646.3 1467.1 642C1468.1 641.3 1468.5 639.9 1467.8 638.9 1467.2 638.3 1465.8 637.8 1465.2 638.5L1454.3 645.2 1440.3 642.1 1464.7 626.4C1465.8 625.7 1465.8 624.4 1465.4 623.3 1464.8 622.6 1463.4 622.2 1462.4 623ZM1415.8 622.9L1420.5 637.8 1421.2 640.1 1419.7 641.8 1409.3 653 1407.4 654.9 1405.1 654.3 1390.3 651 1388 650.5 1387.3 648.2 1382.6 633.3 1381.9 631 1383.5 629.3 1393.8 618.1 1395.3 616.3 1398 616.8 1412.9 620.1 1415.1 620.6 1415.8 622.9Z" fill="rgba(46, 141, 163, 0.4)"></path>
        <path d="M171.4 45.2L177.8 70 172.9 77.9 170.7 69.6C170.7 68.6 169.8 68.3 168.8 68.3 168.2 68.6 167.5 69.5 167.8 70.2L170.6 81.7 166 89.7 161.6 81.6 165 70.1C165 70.1 165 69.8 165 69.8 165 69.2 164.3 68.5 163.7 68.2 162.7 68.2 162.1 68.5 161.8 69.4L159.4 77.7 155 69.7 161.8 45.1C161.8 45.1 162.1 44.8 162.1 44.8 162.1 44.2 161.5 43.5 160.8 43.2 159.9 42.9 158.9 43.5 158.9 44.4L152.9 65.8 147.2 56.1 149.9 46.6C149.9 46.6 149.9 46.6 149.9 46.2 149.9 45.6 149.6 45 149 44.6 148 44.6 147 44.9 146.7 45.9L145 52.3 141 45.2C140.7 44.2 139.7 44.2 139.1 44.5 138.1 44.8 137.8 45.8 138.4 46.7L142.1 53.8 136.1 51.8C135.1 51.8 134.2 52.1 134.1 53.1 133.8 54 134.1 54.7 135.1 55L144.6 57.7 150 67.4 128.3 61.3C127.6 61 126.7 61.6 126.3 62.6 126.3 63.2 126.6 64.2 127.6 64.5L152.1 71.2 156.5 79.3 148.2 76.9C147.3 76.6 146.6 77.2 146.3 78.2 146 78.8 146.6 79.8 147.2 80.1L158.7 83.2 163.4 91.2 154.1 91.1 145.9 82.7C145.3 82 144.3 82 143.7 82.6 143 83 143 84.2 143.6 84.9L149.6 91 140.4 90.9 122.7 72.4C122.1 71.8 121.1 71.8 120.4 72.4 119.8 73.1 119.8 74 120.4 74.7L135.9 90.9 125 90.7 118.1 83.6C117.4 82.9 116.5 82.9 115.8 83.6 115.2 84.2 115.2 85.2 115.8 85.8L120.2 90.7 112.2 90.6C111.2 90.5 110.6 91.2 110.6 92.1 110.6 93.1 111.2 93.7 112.2 93.8L120.2 93.9 115.6 98.3C115 98.9 115 99.9 115.6 100.5S117.2 101.2 117.8 100.5L124.6 93.9 135.8 94.1 120 109.5C119.3 110.2 119.3 111.1 119.9 111.8 120.6 112.4 121.5 112.4 122.2 111.8L140.3 94.1 149.6 94.2 143.4 100.2C142.8 100.9 142.8 101.8 143.4 102.5 144 103.1 145 103.1 145.7 102.5L154.1 94.3 163 94.4 158.5 102 146.9 105.1C146.3 105.4 145.6 106.4 145.9 107 146.2 108 146.9 108.3 147.8 108.3L156.2 106.2 151.6 113.8 126.9 120.2C125.9 120.5 125.6 121.1 125.6 122.1 125.9 123.1 126.8 123.4 127.5 123.4L149.3 117.9 143.4 127.4 134.1 129.9C133.1 129.9 132.8 130.8 132.8 131.8 133.1 132.4 134.1 133.1 135 132.8L141.1 131.3 137.2 138.2C136.5 138.9 136.8 139.8 137.8 140.5 138.4 140.8 139.4 140.5 139.7 139.9L144 132.9 145.5 139.3C145.8 140.3 146.8 140.6 147.4 140.3 148.4 140.3 148.7 139.7 148.7 139 148.7 138.7 148.7 138.7 148.7 138.4L146.3 129.1 152.2 119.6 157.6 141.1C157.6 142 158.6 142.4 159.5 142.4 160.2 142.1 160.5 141.4 160.5 140.8 160.5 140.5 160.5 140.5 160.5 140.5L154.4 115.4 159 107.8 161.2 116.2C161.5 117.1 162.1 117.4 163.1 117.5 163.7 117.1 164.4 116.5 164.4 115.9 164.4 115.6 164.4 115.6 164.4 115.2L161.3 103.7 165.9 96.1 170.3 103.8 167.2 115.3C166.9 116.2 167.5 117.2 168.2 117.5 169.1 117.5 170.1 117.2 170.1 116.3L172.5 108 177.2 115.7 170.1 140.6C169.8 141.2 170.4 142.2 171.1 142.5 172 142.5 173 142.2 173.3 141.3L179.3 119.9 184.7 129.6 182 138.8C181.6 139.8 182.3 140.8 183.2 140.8 183.9 141.1 184.8 140.8 185.2 139.8L186.9 133.5 190.9 140.5C191.2 141.2 192.2 141.5 193.2 141.2 193.5 140.9 193.8 140.3 193.8 139.6 193.8 139.6 193.8 139.3 193.8 139L189.8 131.9 196.1 133.6C196.8 133.9 197.7 133.3 198.1 132.6 198.1 132.3 198.1 132.3 198.1 132.3 198.1 131.4 197.4 130.7 196.8 130.7L187.6 128 181.9 118.3 203.6 124.4C204.6 124.4 205.2 124.1 205.5 123.1 205.5 123.1 205.6 122.8 205.6 122.8 205.6 122.2 205.3 121.5 204.3 121.2L179.7 114.2 175.4 106.4 183.7 108.8C184.6 108.8 185.6 108.5 185.6 107.5 185.9 107.5 185.9 107.2 185.9 107.2 185.9 106.6 185.3 105.9 184.7 105.6L173.2 102.6 168.8 94.5 177.8 94.6 186 103C186.6 103.7 187.9 103.7 188.5 103.1 188.9 102.4 188.9 101.5 188.6 100.8L182.2 94.7 191.5 94.8 209.2 112.9C209.8 113.6 210.8 113.6 211.4 113 212.1 112.3 212.1 111.4 211.5 110.7L196 94.8 207.2 95 213.8 101.8C214.5 102.5 215.4 102.5 216.1 101.8S216.7 100.2 216.1 99.6L211.7 95.1 219.7 95.2C220.6 95.2 221.3 94.5 221.3 93.6 221.3 92.6 220.7 92 219.7 92L211.7 91.9 216.3 87.1C216.6 86.8 216.9 86.5 216.9 86.2 216.9 85.8 216.6 85.2 216.3 84.9 215.7 84.2 214.7 84.2 214.1 84.8L207.2 91.8 196 91.6 211.9 75.9C212.3 75.5 212.6 75.2 212.6 74.9 212.6 74.6 212.3 73.9 212 73.6 211.3 73 210.4 73 209.7 73.6L191.6 91.6 182.3 91.5 188.8 85.5C189.1 85.2 189.1 84.5 189.1 84.2 189.1 83.9 189.1 83.6 188.8 83.2 188.2 82.6 186.9 82.6 186.6 83.2L177.8 91.4 168.8 91.3 173.4 83.4 185 80.6C185.6 80.3 186.3 79.7 186.3 79 186.3 78.7 186.3 78.7 186 78.7 186 77.8 185 77.1 184.1 77.4L175.7 79.5 180.3 71.6 205.3 65.5C206 65.2 206.3 64.6 206.3 63.9 206.3 63.6 206.3 63.6 206.3 63.6 206 62.7 205.4 62 204.4 62.3L182.6 67.8 188.5 58.3 197.8 55.8C198.8 55.5 199.1 54.9 199.1 54.2 199.1 54.2 199.1 53.9 199.1 53.9 198.8 53 197.8 52.6 197.2 52.6L190.8 54.5 195 47.5C195 47.2 195 46.8 195 46.5 195 46.2 194.7 45.5 194.4 45.2 193.5 44.9 192.5 44.9 192.2 45.8L187.9 52.8 186.4 46.4C186.1 45.4 185.1 45.1 184.5 45.1 183.5 45.4 183.2 46.4 183.2 47.3L185.6 56.6 180.1 66.2 174.6 44.6C174.3 43.7 173.3 43 172.7 43.3 171.7 43.6 171.1 44.3 171.4 45.2Z" fill="rgba(46, 141, 163, 0.4)"></path>
        <path d="M1248.9 551.2L1237.7 551.7 1240.5 545.6C1240.9 545 1240.6 544 1239.8 543.4 1238.9 543.2 1237.9 543.5 1237.8 544.4L1233.9 551.9 1225.2 552.7 1233.2 537C1233.4 536.1 1233.2 535.1 1232.5 534.8 1231.5 534.3 1230.5 534.6 1230.3 535.5L1221.5 552.9 1208.2 553.7 1216.6 540.8 1201.5 543.5 1207.3 531.6 1226.8 530.2C1227 530.4 1227.2 530.2 1227.5 530.1 1228 529.7 1228.4 529.1 1228.3 528.4 1228.2 527.7 1227.4 527 1226.5 526.9L1208.9 528.2 1213 520.5 1221.5 519.9C1221.9 519.9 1222.2 519.8 1222.4 519.6 1222.7 519.4 1223.1 518.8 1223 518.1 1222.9 517.4 1222.1 516.7 1221.4 516.8L1214.6 517.1 1219.4 507C1220.1 506.2 1219.5 505.4 1218.7 504.8 1218.1 504.4 1217.1 504.7 1216.7 505.7L1211.7 515.6 1208 510C1207.5 509.2 1206.3 509.2 1205.8 509.5 1205 510.1 1204.8 511 1205.3 511.8L1210.1 519 1206 526.7 1196.4 512.3C1195.9 511.5 1195 511.3 1194.2 511.8 1193.7 512.2 1193.2 513.3 1193.8 514.1L1204.4 530 1198.5 542 1191.5 528.6 1186.4 542.8 1178.9 531.6 1187.5 514.4C1187.9 513.3 1187.4 512.5 1186.8 512.2 1186.2 511.8 1185.2 512.1 1184.6 512.9L1177 528.7 1172.2 521.5 1175.9 513.7C1176.5 512.9 1176.2 511.9 1175.1 511.5 1174.5 511.1 1173.5 511.4 1173.1 512.4L1170.1 518.3 1163.9 509C1163.3 508.2 1162.5 508 1161.7 508.5S1160.7 509.9 1161.2 510.7L1167.4 520.1 1160.8 520.6C1159.7 520.6 1159.1 521.4 1159.2 522.1 1159.2 523.2 1160 523.9 1160.9 523.6L1169.5 523.3 1174.3 530.4 1156.8 531.3C1155.9 531.6 1155.2 532.4 1155.3 533.1 1155.3 534.2 1156.1 534.9 1157.1 534.6L1176.3 533.4 1183.7 544.6 1168.6 543.8 1178.3 555.5 1165 556.3 1154.3 540.3C1153.8 539.5 1152.7 539.5 1152.1 539.8 1151.3 540.4 1151.1 541.2 1151.7 542L1161.4 556.7 1152.5 557.2 1147.8 550C1147.2 549.2 1146.3 549 1145.5 549.6 1145 549.9 1144.6 551 1145.1 551.8L1148.8 557.4 1137.8 558.2C1136.7 558.2 1136 559 1136.3 560 1136.4 560.7 1136.9 561.5 1137.9 561.2L1149.1 560.7 1146.2 566.8C1145.9 567.4 1146.1 568.4 1146.8 568.8 1147.4 569.1 1148.1 569 1148.4 568.8 1148.6 568.7 1148.9 568.5 1149 568L1152.8 560.5 1161.5 559.7 1153.5 575.4C1153.3 576.3 1153.6 577.3 1154.2 577.6 1154.8 578 1155.5 577.9 1156.1 577.6 1156.3 577.4 1156.3 577.4 1156.4 576.9L1165.2 559.5 1178.5 558.8 1170.2 571.6 1185.3 568.9 1179.4 580.9 1160 582.3C1159.3 582.3 1158.5 582.9 1158.5 584 1158.5 584.7 1159.3 585.4 1160.2 585.5L1177.8 584.2 1173.7 591.9 1165.3 592.6C1164.4 592.4 1163.8 593.2 1163.8 594.3 1163.9 595 1164.7 595.7 1165.5 595.8L1172.1 595.3 1167.3 605.4C1166.7 606.2 1167.2 607 1168 607.7 1168.5 607.7 1169.2 607.7 1169.4 607.5 1169.7 607.3 1170 607.1 1170.1 606.7L1175 596.8 1178.8 602.4C1179.3 603.2 1180.4 603.2 1181 602.9L1181 602.9C1181.8 602.3 1182 601.5 1181.4 600.7L1176.6 593.5 1180.7 585.7 1190.3 600.1C1190.8 600.9 1191.7 601.1 1192.5 600.6S1193.5 599.2 1193 598.4L1182.3 582.4 1188.2 570.4 1195.2 583.8 1200.4 569.6 1207.8 580.8 1199.3 598C1198.8 599.1 1199.4 599.9 1200 600.2 1200.6 600.6 1201.6 600.3 1202.2 599.5L1209.9 584 1214.5 590.9 1210.9 598.7C1210.3 599.5 1210.5 600.5 1211.6 601 1212.2 601.3 1213.2 601.1 1213.8 600.3L1216.7 594.1 1222.9 603.5C1223.4 604.3 1224.3 604.4 1225.1 603.9S1226.1 602.5 1225.5 601.7L1219.3 592.4 1225.9 591.8C1226.3 591.9 1226.6 591.7 1226.9 591.6 1227.4 591.2 1227.5 590.8 1227.6 590.3 1227.6 589.2 1226.8 588.6 1225.8 588.8L1217.2 589.2 1212.4 582 1229.9 581.1C1230.2 580.9 1230.4 580.7 1230.7 580.6 1231.2 580.2 1231.3 579.8 1231.4 579.3 1231.4 578.2 1230.6 577.6 1229.6 577.8L1210.5 579 1203 567.8 1218.1 568.6 1208.5 556.9 1221.8 556.2 1232.4 572.1C1232.9 572.9 1234.1 572.9 1234.6 572.6 1235.4 572.1 1235.6 571.2 1235.1 570.4L1225.5 556 1234.2 555.2 1239 562.4C1239.5 563.2 1240.4 563.4 1241.2 562.8S1242.2 561.4 1241.6 560.6L1237.9 555 1248.9 554.2C1249.4 554.3 1249.6 554.1 1249.9 554 1250.2 553.8 1250.5 553.2 1250.4 552.5 1250.4 551.8 1249.8 551 1248.9 551.2ZM1211.2 565.1L1198.9 564.5 1194.7 576.1 1188.8 565 1176.9 567.2 1183.3 556.7 1175.5 547.3 1187.9 547.9 1192.1 536.3 1197.7 547.2 1209.9 545.2 1203.2 555.4 1211.2 565.1Z" fill="rgba(46, 141, 163, 0.4)"></path>
        <path d="M442.5 625.9L458.2 631.8 450.6 638.6C449.8 639.2 449.6 640.7 450.3 642.1 451.4 642.8 452.9 643.1 453.7 641.9L463.4 633.8 475.9 637.9 455.5 654.8C454.8 655.9 454.6 657.4 455.2 658.2 456.4 659.5 457.9 659.7 458.7 658.6L481.1 639.9 499.9 646.7 480.8 659.4 503.2 664.6 488 677.6 460.4 668C460.3 667.6 459.8 667.7 459.4 667.7 458.4 667.9 457.6 668.6 457.3 669.6 457 670.6 457.7 671.9 458.8 672.7L483.8 681.3 473.6 689.5 461.6 685.4C461 685 460.6 685.1 460.1 685.2 459.6 685.3 458.8 685.9 458.5 686.9 458.2 688 458.9 689.3 459.9 689.6L469.4 693.2 456.8 704.3C455.4 705 455.7 706.5 456.4 707.8 457.1 708.7 458.6 708.9 459.8 707.7L472.5 697.1 474.3 707C474.6 708.4 476.2 709.1 477.1 708.9 478.5 708.6 479.3 707.5 479 706.1L476.7 693.4 486.9 685.2 491.6 710.7C491.8 712.1 492.9 712.8 494.4 712.6 495.3 712.4 496.6 711.2 496.3 709.8L491.1 681.5 506.3 668.5 508 691.1 523.5 674.6 527.2 694.4 505.2 713.1C503.9 714.3 504.2 715.7 504.8 716.5 505.5 717.4 507 717.6 508.3 716.9L528.1 699.6 530.4 712.4 520.8 721C519.4 721.7 519.2 723.2 520.4 724.4 521.1 725.3 522.6 725.5 523.8 724.3L531.5 718 534.5 734.6C534.7 736 535.8 736.8 537.3 736.5S539.5 735.1 539.2 733.7L536.2 717.2 545.5 720.3C547.1 721 548.5 720.3 548.8 719.3 549.4 717.7 548.7 716.4 547.2 716.1L535.2 711.5 532.8 698.8 557.4 707.9C558.9 708.2 560.3 707.4 560.6 706.4 561.3 704.8 560.5 703.5 559 703.3L531.9 693.6 528.3 673.7 548.6 683.7 542.2 661.9 561 668.7 566.2 697.1C566.4 698.5 568 699.2 569 699 570.4 698.7 571.2 697.6 570.9 696.2L566.2 670.2 578.7 674.8 581 687.5C581.3 689 582.4 689.7 583.8 689.5 584.8 689.3 586 688.1 585.8 686.7L584 676.8 599.6 682.2C601.2 682.9 602.5 682.2 602.7 680.7 603 679.6 602.8 678.2 601.3 678L585.5 672.1 593.1 665.3C594 664.7 594.2 663.2 593.5 662.3 592.9 661.5 591.9 661.2 591.4 661.3 590.9 661.3 590.4 661.4 590 662L580.3 670.1 567.9 666 588.2 649.2C589 648 589.2 646.5 588.5 645.7 587.9 644.8 586.9 644.5 585.9 644.7 585.5 644.8 585.5 644.8 585.1 645.3L562.6 664.1 543.8 657.2 563 644.5 540.5 639.3 555.7 626.3 583.3 635.9C584.4 636.2 585.8 635.9 586.5 634.3 586.8 633.3 586 632 584.9 631.2L559.9 622.6 570.2 614.4 582.1 618.5C583.3 619.3 584.6 618.6 585.3 617 585.6 616 584.8 614.6 583.7 613.9L574.4 610.7 587 599.6C588.3 598.9 588.1 597.5 587.3 596.1 586.8 595.7 585.7 595.4 585.3 595.5 584.8 595.6 584.3 595.7 583.9 596.3L571.2 606.9 569.4 597C569.2 595.5 567.6 594.9 566.6 595L566.6 595C565.2 595.3 564.4 596.4 564.7 597.8L567 610.6 556.8 618.8 552.2 593.3C551.9 591.8 550.8 591.1 549.4 591.3S547.2 592.7 547.4 594.1L552.6 622.5 537.4 635.5 535.7 612.8 520.2 629.3 516.6 609.5 538.6 590.9C539.8 589.7 539.5 588.2 538.9 587.4 538.3 586.5 536.7 586.3 535.4 587L515.5 603.8 513.3 591.6 523 583C524.3 582.2 524.5 580.7 523.3 579.5 522.7 578.6 521.2 578.4 519.8 579.2L512.3 585.9 509.3 569.4C509 567.9 507.9 567.2 506.5 567.4S504.3 568.8 504.5 570.2L507.6 586.8 498.2 583.6C497.6 583.2 497.2 583.3 496.7 583.4 495.7 583.5 495.4 584.1 495 584.7 494.3 586.2 495 587.6 496.5 587.8L508.6 592.4 510.9 605.2 486.3 596C485.8 596.1 485.4 596.2 484.9 596.2 483.9 596.4 483.6 597 483.2 597.5 482.5 599.1 483.2 600.5 484.7 600.7L511.9 610.4 515.5 630.2 495.1 620.2 501.5 642 482.7 635.2 477.6 606.9C477.3 605.4 475.7 604.7 474.8 604.9 473.3 605.2 472.6 606.3 472.8 607.7L477.5 633.2 465 629.1 462.7 616.4C462.4 615 461.3 614.2 459.9 614.5S457.7 615.8 458 617.2L459.8 627.2 444.2 621.7C443.6 621.3 443.1 621.4 442.7 621.5 442.2 621.6 441.3 622.2 441 623.3 440.7 624.3 441 625.7 442.5 625.9ZM502.6 629.1L519.2 637.3 531.9 623.8 533.3 642.6 551.1 646.6 536 657.2 541.2 674.8 524.5 666.6 511.9 680.1 510.5 661.8 492.6 657.3 507.8 647.2 502.6 629.1Z" fill="rgba(46, 141, 163, 0.4)"></path>
        <path d="M513.8 388.1L488.3 341.5 501.9 296.2 534.4 330.6 532.5 383.7C532.5 383.7 532.7 384.3 532.7 384.3 533 385.5 534.5 386.5 535.9 386.8 537.9 387 539.5 385.3 539 383.4L540.5 337 556.3 353.7 555.9 374.1C555.9 374.1 556.1 374.8 556.1 374.8 556.4 376 557.9 377 559.3 377.3 561.3 377.5 562.9 375.8 562.4 373.9L563.1 360 574.6 372.4C575.5 373.4 578.1 373.5 579.2 372.6 580.9 371.5 580.3 369 579.4 367.9L567.9 355.5 581.9 356.1C583.9 356.3 585.5 354.6 585 352.8 585.2 350.7 583.5 349.2 581.7 349.6L561.2 349.2 546 332.4 592.4 333.9C594.4 334.1 596 332.4 595.5 330.5 595.7 328.5 594 326.9 592.2 327.4L539.1 325.5 506.6 291.1 553.3 280 598.8 308.1C600.3 309 602.2 308.6 603.1 307 604.1 305.5 603.6 303.6 602.1 302.7L562 278 584.4 272.7 601.4 283.1C602.9 284 604.8 283.6 605.7 282.1 606.7 280.5 606.2 278.7 604.7 277.7L593.1 270.6 610.6 266.4C612.6 266.6 613.4 264.5 613 262.6 612.5 260.7 611 259.8 609.1 260.2L592.9 264.1 600 252.5C601 251 600.5 249.1 599 248.1S595.6 247.6 594.6 249.2L584.2 266.1 561.8 271.5 586.5 231.4C587.4 229.8 587 228 585.4 227 583.9 226.1 582 226.5 581.1 228.1L553.1 273.5 507 284.5 520.6 239.1 566 214.5C567.7 213.5 567.9 211.5 567.5 209.6 566.4 207.9 564.4 207.7 562.5 208.1L521.8 230.3 528.4 208.3 546.5 198.8C548.2 197.7 548.4 195.7 547.9 193.8 546.9 192.1 544.9 191.9 543.6 192.2L531.4 199.1 536.1 182.8C536.5 181.4 535.9 178.9 533.8 178.8 531.8 178.6 530 179 529.8 181L525.1 197.3 518.2 185.1C517.2 183.4 515.2 183.2 513.9 183.5 512.8 184.4 511.9 186 512.2 187.2 512.2 187.2 512.3 187.8 512.3 187.8L521.9 205.9 515.3 227.9 493.1 187.1C492 185.4 490 185.2 488.7 185.5 487.7 186.4 486.7 188 487 189.2 487 189.2 487.1 189.9 487.1 189.9L512.7 236.4 499.1 281.7 466.6 247.4 468.5 194.3C468.6 192.3 467 190.7 465.1 191.1 463.1 191 461.5 192.7 461.9 194.5L460.5 240.9 444.7 224.3 445.1 203.8C445.2 201.8 443.6 200.2 441.7 200.6 439.7 200.5 438.1 202.2 438.5 204L437.9 218 426.4 205.6C425.5 204.5 422.9 204.5 421.8 205.4 420.7 206.3 420.3 207.7 420.6 208.9 420.8 209.6 420.9 210.2 421.7 210.7L433.2 223.1 419.2 222.4C417.2 222.2 415.6 223.9 416.1 225.8 416.1 225.8 416.2 226.4 416.2 226.4 416.5 227.7 418.1 228.6 419.5 228.9L440 229.3 455.7 246 409.3 244.5C407.3 244.3 405.8 246 406.2 247.9 406.2 247.9 406.4 248.5 406.4 248.5 406.6 249.8 408.2 250.7 409.6 251L462.6 252.9 495.2 287.3 449.1 298.2 403.6 270.2C402.1 269.3 400.2 269.7 399.3 271.2 398.3 272.8 398.7 274.7 400.3 275.6L439.7 300.4 417.3 305.8 400.4 295.3C398.8 294.4 397 294.8 396 296.4S395.5 299.8 397 300.7L408.6 307.8 392.4 311.7C390.5 312.1 389.6 313.7 390 315.5 390.5 317.4 392 318.3 393.9 317.9L410.1 314.1 403 325.6C402.5 326.4 402 327.2 402.3 328.4S403.4 330.1 404.1 330.6C405.7 331.5 407.6 331.1 408.5 329.6L418.9 312.6 441.4 307.3 416.7 347.4C416.2 348.1 415.7 348.9 416 350.1 416.2 350.8 417.1 351.9 417.9 352.3 419.4 353.3 421.3 352.8 422.2 351.3L450.2 305.8 496.3 294.9 482.7 340.2 436.2 365.7C435.1 366.7 434.1 368.2 434.4 369.5 434.4 369.5 434.6 370.1 434.6 370.1 435.6 371.8 437.6 372 438.9 371.7L479.7 349.5 473 371.5 454.9 381C453.8 381.9 452.9 383.5 453.2 384.7 453.2 384.7 453.3 385.4 453.3 385.4 454.4 387.1 456.4 387.3 457.7 387L469.8 380.1 465.1 396.4C465.3 397 464.8 397.8 465 398.4 465.3 399.6 466.2 400.7 467.6 401 469.6 401.2 471.5 400.8 471.6 398.8L476.3 382.5 483.2 394.7C484.2 396.4 486.3 396.6 487.5 396.3 489.2 395.2 489.4 393.2 489.1 392L479.5 373.9 486.2 351.9 508.3 392.7C509.4 394.4 511.4 394.6 512.7 394.3 514.1 392 514.9 389.8 513.8 388.1Z" fill="rgba(46, 141, 163, 0.4)"></path>
        <path d="M129.7 240.2L120.8 247 119.7 240.3C119.6 239.6 118.8 238.9 117.8 238.9 117 239.2 116.3 240 116.7 240.8L117.8 249.2 111.1 254.8 108.8 237.3C108.5 236.5 107.7 235.8 107 235.9 105.8 236.1 105.2 236.9 105.5 237.7L108.1 257 97.5 265.2 97.2 249.9 86.3 260.6 84.4 247.4 99.6 235.3C99.9 235.4 100 235.1 100.1 234.8 100.4 234.2 100.3 233.5 99.9 233 99.4 232.4 98.4 232.4 97.5 232.7L83.8 243.7 82.8 235.1 89.4 229.8C89.8 229.6 89.9 229.3 90.1 229 90.2 228.7 90.1 228 89.7 227.5 89.2 226.9 88.2 226.9 87.6 227.4L82.2 231.4 80.5 220.3C80.5 219.3 79.6 218.9 78.6 218.9 77.9 218.9 77.3 219.7 77.5 220.8L78.9 231.8 72.7 229.3C71.8 228.9 70.9 229.6 70.6 230.1 70.3 231 70.6 231.9 71.5 232.2L79.5 235.5 80.5 244.1 64.5 237.7C63.6 237.3 62.8 237.7 62.4 238.6 62.2 239.1 62.4 240.3 63.3 240.6L81.1 247.8 83 261 69.7 253.9 73.4 268.5 60.9 263.5 58.3 244.5C58 243.4 57.2 243 56.4 243 55.7 243.1 55.1 243.9 55 244.9L57.7 262.2 49.7 258.9 48.3 250.4C48.3 249.4 47.6 248.8 46.4 249 45.7 249.1 45.1 249.8 45.3 251L46.1 257.5 35.7 253.3C34.8 253 34 253.3 33.6 254.2S33.6 255.9 34.5 256.3L44.9 260.5 39.8 264.6C38.8 265.3 38.8 266.3 39.2 266.8 39.9 267.8 40.9 267.8 41.6 267.1L48.5 261.9 56.5 265.2 42.5 275.7C41.9 276.5 41.8 277.5 42.3 278.1 42.9 279 43.9 279.1 44.6 278.3L59.7 266.5 72.2 271.5 59.3 279.4 73.9 283.6 63.3 291.7 45.5 284.5C44.6 284.2 43.7 284.8 43.4 285.4 43.1 286.3 43.4 287.2 44.3 287.5L60.7 294.1 53.6 299.5 45.6 296.3C44.7 296 43.9 296.3 43.5 297.2 43.3 297.8 43.5 298.9 44.4 299.3L50.6 301.8 42 308.7C41 309.3 41 310.3 41.8 311 42.2 311.5 43.1 311.9 43.8 311.1L52.7 304.4 53.8 311C53.9 311.7 54.6 312.4 55.4 312.3 56.1 312.3 56.6 311.8 56.7 311.5 56.8 311.2 57 310.9 56.8 310.5L55.7 302.1 62.4 296.6 64.7 314C65 314.9 65.8 315.5 66.5 315.5 67.2 315.4 67.8 314.9 68 314.3 68.1 314 68.1 314 67.9 313.6L65.4 294.3 76 286.1 76.3 301.5 87.2 290.7 89.1 303.9 73.9 316C73.3 316.5 73 317.4 73.6 318.3 74.1 318.9 75.1 318.9 76 318.6L89.7 307.6 90.7 316.3 84.1 321.5C83.2 321.9 83.2 322.9 83.8 323.8 84.3 324.4 85.3 324.4 86.2 324.1L91.3 319.9 93 331C93 332 93.8 332.4 94.9 332.4 95.3 332.3 95.8 331.8 95.9 331.5 96.1 331.2 96.2 330.9 96 330.5L94.5 319.5 100.8 322.1C101.7 322.4 102.6 321.8 102.9 321.2L102.9 321.2C103.2 320.3 102.9 319.5 102 319.1L94 315.9 93 307.2 109 313.7C109.9 314 110.7 313.7 111.1 312.8S111.1 311 110.2 310.7L92.4 303.5 90.5 290.3 103.8 297.4 100.1 282.8 112.5 287.8 115.2 306.8C115.4 308 116.3 308.3 117.1 308.3 117.8 308.2 118.4 307.5 118.5 306.4L116.1 289.3 123.8 292.4 125.2 300.9C125.2 301.9 125.9 302.5 127.1 302.3 127.8 302.3 128.4 301.5 128.5 300.5L127.4 293.8 137.8 298C138.7 298.4 139.5 298 139.9 297.1S139.9 295.4 139 295L128.6 290.8 133.7 286.7C134.1 286.5 134.2 286.2 134.4 285.9 134.6 285.3 134.4 284.9 134.3 284.5 133.6 283.6 132.6 283.5 131.9 284.3L125 289.4 117 286.2 131 275.6C131.1 275.3 131.2 275 131.3 274.7 131.6 274.1 131.4 273.7 131.2 273.3 130.6 272.3 129.5 272.3 128.9 273L113.7 284.9 101.3 279.8 114.2 271.9 99.6 267.7 110.2 259.6 128 266.8C128.8 267.1 129.8 266.5 130 265.9 130.4 265 130 264.2 129.2 263.8L113.1 257.3 119.9 251.8 127.9 255C128.8 255.4 129.6 255 130 254.1S130 252.4 129.1 252L122.9 249.5 131.5 242.7C131.9 242.5 132 242.2 132.1 241.9 132.3 241.6 132.2 240.9 131.7 240.4 131.3 239.8 130.4 239.5 129.7 240.2ZM106.5 272.9L95.9 279.4 99 291.3 88 285.5 79.3 294.1 78.8 281.8 67 278.4 77.5 271.9 74.4 260 85.2 265.7 94.2 257.3 94.4 269.5 106.5 272.9Z" fill="rgba(46, 141, 163, 0.4)"></path>
        <path d="M1155.1 837.8L1124.4 814.8 1122.7 800.9 1133 808.7C1133.9 809.8 1135.4 809.3 1136.5 808.4 1136.9 807.5 1136.8 805.7 1135.8 805.3L1121.8 794.3 1119.7 780.7 1132.4 786.1 1139.3 802.6C1139.3 802.6 1139.6 803 1139.6 803 1140.1 803.8 1141.5 803.9 1142.5 803.7 1143.7 802.8 1144.1 801.9 1143.6 800.4L1138.6 788.5 1151.3 793.9 1166.5 828.9C1166.5 828.9 1166.4 829.6 1166.4 829.6 1167 830.3 1168.3 830.5 1169.4 830.3 1170.8 829.8 1171.3 828.1 1170.4 827L1157.5 796.3 1173.1 802.4 1179 816.1C1179 816.1 1179 816.1 1179.3 816.5 1179.9 817.2 1180.8 817.7 1181.9 817.5 1183 816.6 1183.9 815.3 1183.4 813.9L1179.3 804.8 1190.8 809.3C1192 810.2 1193.2 809.3 1193.6 808.3 1194.5 807 1193.9 805.6 1192.3 805.1L1181.3 800.3 1190.2 796.9C1191.4 796.1 1192.2 794.8 1191.3 793.7 1190.8 792.2 1189.8 791.8 1188.4 792.3L1174.7 798.1 1159.4 791.8 1190.4 778.5C1191.5 778.3 1192 776.6 1191.5 775.2 1190.9 774.5 1189.7 773.6 1188.3 774.1L1153.2 789.3 1140.5 784 1152.4 778.9C1153.9 778.4 1154 777.1 1153.5 775.7 1153.3 774.6 1151.7 774.1 1150.6 774.3L1134.3 781.5 1121.3 776.5 1132.3 767.9 1149.8 770.1C1151.1 770.2 1152.3 769.3 1152.4 768 1152.9 767 1151.7 765.5 1150.3 765.4L1137.5 763.8 1148.5 755.2 1186.5 760.2C1187.9 760.4 1189 759.5 1189.2 758.2 1189.4 756.8 1188.5 755.7 1187.1 755.5L1153.8 751.1 1166.7 741 1181.5 742.9C1182.9 743 1184 742.1 1184.2 740.8 1184.3 739.4 1183.4 738.3 1182.1 738.1L1172.4 736.6 1181.8 729.2C1183 728.3 1183.1 727 1182.2 725.9 1181.4 724.7 1180 724.6 1178.9 725.4L1169.4 732.8 1170.6 723.4C1170.7 722 1169.9 720.9 1168.5 720.7S1166 721.5 1165.9 722.8L1164.1 737 1150.9 747.3 1154.9 714.3C1155.1 712.9 1154.2 711.8 1152.9 711.6 1151.5 711.5 1150.4 712.3 1150.2 713.7L1145.6 751.4 1134.6 760 1136.2 747.2C1136.3 745.8 1135.5 744.7 1134.1 744.5 1132.8 744.4 1131.6 745.3 1131.5 746.6L1129.3 764.1 1118.7 772.4 1116.9 759.2 1127.6 744.8C1128 743.8 1127.9 742.1 1126.9 741.6 1125.7 740.8 1124.6 741 1123.5 741.9L1115.7 752.2 1113.9 739 1136.9 708.3C1137.7 707 1137.5 706 1136.6 704.8 1135.3 704 1133.9 704.5 1133.2 705.1L1112.7 732 1110.7 715.3 1119.3 703.7C1120.4 702.8 1119.9 701.4 1119 700.3 1118.1 699.8 1116.4 699.9 1115.5 701.2L1109.8 708.7 1107.8 696.8C1108 695.5 1106.7 694.7 1105 694.8 1104 695 1103.1 696.3 1103.3 697.3L1104.9 709.5 1097.1 703.4C1095.9 702.5 1094.4 703.1 1094 704 1092.8 704.9 1093 706 1093.6 706.7 1093.9 707.1 1093.9 707.1 1094.2 707.5L1105.8 716.1 1107.9 732.8 1081.3 712.7C1080.4 711.6 1078.9 712.1 1077.8 713 1077.3 713.9 1077.6 715 1078.2 715.8 1078.4 716.1 1078.4 716.1 1078.4 716.1L1109 739.7 1110.8 753 1100.5 745.2C1099.2 744.3 1098.2 744.6 1097.1 745.4 1096.6 746.4 1096.4 747.8 1097 748.5 1097.3 748.9 1097.3 748.9 1097.6 749.3L1112 759.9 1113.8 773.2 1101.4 768.2 1094.2 751.9C1093.7 750.5 1092.1 750 1091 750.2 1089.9 751.1 1089 752.3 1089.9 753.5L1094.9 765.4 1082.2 760.7 1067.1 725C1066.9 723.9 1065.2 723.4 1064.2 723.6 1063.1 724.5 1062.2 725.8 1062.7 727.2L1075.7 757.9 1060.4 751.5 1054.9 738.2C1054.4 736.8 1052.7 736.2 1051.6 737.1 1050.5 737.3 1049.7 738.6 1050.2 740L1054.2 749.1 1042.8 744.6C1041.8 744.1 1040.4 744.6 1039.6 745.9 1039.5 746.5 1039.7 747.6 1040.3 748.4 1040.3 748.4 1040.6 748.7 1040.9 749.1L1052.3 753.6 1043.2 757.6C1042.2 757.8 1041.6 759.5 1041.9 760.5 1042.1 760.9 1042.1 760.9 1042.1 760.9 1043 762 1044.4 762.2 1045.1 761.6L1058.5 756.1 1074.1 762.1 1043.1 775.4C1042 776.3 1041.5 777.2 1042 778.7 1042 778.7 1042.3 779 1042.3 779 1042.9 779.8 1043.9 780.3 1045.3 779.8L1080.6 765 1093 769.9 1081.1 774.9C1080 775.8 1079.1 777.1 1080 778.2 1079.6 778.5 1079.9 778.9 1079.9 778.9 1080.5 779.7 1081.9 779.8 1082.9 779.6L1099.2 772.4 1111.9 777.7 1101.3 786 1083.8 783.8C1082.4 783.7 1080.9 784.8 1080.8 786.2 1081 787.2 1081.9 788.4 1082.8 788.8L1096 790.1 1085 798.7 1047.3 794C1045.9 793.9 1044.8 794.7 1044.6 796.1 1044.5 797.4 1045.4 798.6 1046.7 798.7L1079.7 802.8 1066.5 813.1 1052.3 811.4C1051 811.2 1049.9 812.1 1049.7 813.5S1050.4 816 1051.8 816.1L1061.2 817.3 1051.7 824.7C1050.6 825.5 1050.4 826.9 1051.3 828 1052.2 829.2 1053.5 829.3 1054.7 828.4L1064.1 821.1 1063.3 830.9C1063.2 831.5 1063.1 832.2 1063.4 832.6 1063.7 833 1064.7 833.4 1065.3 833.5 1066.7 833.7 1067.8 832.8 1068 831.5L1069.4 816.9 1082.7 806.6 1078.9 840C1078.8 840.7 1078.7 841.3 1079 841.7 1079.3 842.1 1080.3 842.6 1081 842.6 1082.3 842.8 1083.5 841.9 1083.6 840.6L1088 802.5 1099 793.9 1097 807C1096.9 807.7 1097.5 808.4 1097.8 808.8 1098.1 809.2 1098.4 809.6 1099.1 809.6 1100.4 809.8 1101.9 808.6 1101.7 807.6L1104.2 789.8 1114.8 781.5 1116.9 795.1 1106 809.1C1105.5 810.1 1105.3 811.4 1105.9 812.2 1106.2 812.6 1106.2 812.6 1106.6 812.3 1107.5 813.4 1109.2 813.3 1110.1 812L1117.8 801.7 1119.9 815.3 1096.3 845.9C1095.8 846.9 1096.1 847.9 1096.6 848.7 1096.9 849 1096.9 849 1096.9 849 1098.2 849.9 1099.6 850.1 1100.4 848.8L1120.8 821.9 1122.9 838.6 1114.2 850.2C1113.4 851.4 1113.6 852.5 1114.2 853.2 1114.2 853.2 1114.5 853.6 1114.5 853.6 1115.8 854.4 1117.2 853.9 1118 853.3L1123.7 845.2 1125.3 857.3C1125.6 857.7 1125.9 858.1 1126.2 858.5 1126.5 858.9 1127.5 859.3 1128.2 859.4 1129.6 858.9 1130.7 858 1130.2 856.6L1128.6 844.4 1136.4 850.5C1137.7 851.3 1139.1 850.8 1139.9 850.2 1140.7 849 1140.2 847.5 1139.3 846.4L1127.7 837.8 1125.3 821.4 1151.9 841.5C1153.2 842.3 1154.9 842.2 1155.4 841.2 1156.2 839.9 1156.4 838.6 1155.1 837.8Z" fill="rgba(46, 141, 163, 0.4)"></path>
    </g>
    <defs>
        <mask id="SvgjsMask1156">
            <rect width="1440" height="820" fill="#ffffff"></rect>
        </mask>
        <filter id="SvgjsFilter1157">
            <feGaussianBlur stdDeviation="1"></feGaussianBlur>
        </filter>
    </defs>
</svg>